<svg width="24" height="24" viewBox="0 0 24 24" fill="none" xmlns="http://www.w3.org/2000/svg">
<g clip-path="url(#clip0_1_5823)">
<path d="M5.14296 10.2857C6.5611 10.2857 7.71439 9.13239 7.71439 7.71425C7.71439 6.29611 6.5611 5.14282 5.14296 5.14282C3.72482 5.14282 2.57153 6.29611 2.57153 7.71425C2.57153 9.13239 3.72482 10.2857 5.14296 10.2857ZM5.14296 5.99997C6.08839 5.99997 6.85725 6.76882 6.85725 7.71425C6.85725 8.65968 6.08839 9.42854 5.14296 9.42854C4.19753 9.42854 3.42868 8.65968 3.42868 7.71425C3.42868 6.76882 4.19753 5.99997 5.14296 5.99997Z" fill="white"/>
<path d="M18.8576 10.2859C20.2757 10.2859 21.429 9.13264 21.429 7.71449C21.429 6.29635 20.2757 5.14307 18.8576 5.14307C17.4394 5.14307 16.2861 6.29635 16.2861 7.71449C16.2861 9.13264 17.4394 10.2859 18.8576 10.2859ZM18.8576 6.00021C19.803 6.00021 20.5718 6.76907 20.5718 7.71449C20.5718 8.65992 19.803 9.42878 18.8576 9.42878C17.9121 9.42878 17.1433 8.65992 17.1433 7.71449C17.1433 6.76907 17.9121 6.00021 18.8576 6.00021Z" fill="white"/>
<path d="M23.1429 11.1428V16.7143C23.1429 17.4231 22.566 18 21.8571 18V13.2857C21.8571 12.1041 20.8959 11.1428 19.7143 11.1428H17.5714C17.3349 11.1428 17.1429 11.3348 17.1429 11.5714V13.2857V13.7143V14.1428H13.7143C13.4777 14.1428 13.2857 14.3348 13.2857 14.5714V15.8571H10.7143V14.5714C10.7143 14.3348 10.5223 14.1428 10.2857 14.1428H6.85714V13.7143V13.2857V11.5714C6.85714 11.3348 6.66514 11.1428 6.42857 11.1428H4.28571C3.10414 11.1428 2.14286 12.1041 2.14286 13.2857V18C1.434 18 0.857143 17.4231 0.857143 16.7143V11.1428H0V16.7143C0 17.5907 0.530143 18.3437 1.28571 18.6754V24H2.14286V18.8571H2.57143H3H6.42857V23.5714C6.42857 23.808 6.62057 24 6.85714 24H8.14286H8.57143H9V23.5714V17.1428V16.7143H10.2857H13.7143H15V17.1428V23.5714V24H15.4286H15.8571H17.1429C17.3794 24 17.5714 23.808 17.5714 23.5714V18.8571H21H21.4286H21.8571V24H22.7143V18.6754C23.4699 18.3437 24 17.5907 24 16.7143V11.1428H23.1429ZM8.57143 15.8571H7.71429H5.14286V13.2857H4.28571V16.2857C4.28571 16.5223 4.47771 16.7143 4.71429 16.7143H7.71429C7.95043 16.7143 8.14286 16.9067 8.14286 17.1428V23.1428H7.28571V18.4285C7.28571 18.192 7.09371 18 6.85714 18H3V13.2857C3 12.5768 3.57686 12 4.28571 12H6V13.2857V13.7143V14.5714C6 14.808 6.192 15 6.42857 15H9.85714V15.8571H8.57143ZM17.1429 18C16.9063 18 16.7143 18.192 16.7143 18.4285V23.1428H15.8571V17.1428C15.8571 16.9067 16.0496 16.7143 16.2857 16.7143H19.2857C19.5223 16.7143 19.7143 16.5223 19.7143 16.2857V13.2857H18.8571V15.8571H16.2857H15.4286H14.1429V15H17.5714C17.808 15 18 14.808 18 14.5714V13.7143V13.2857V12H19.7143C20.4231 12 21 12.5768 21 13.2857V18H17.1429Z" fill="white"/>
<path d="M8.14314 4.28571V5.57143C8.14314 5.75614 8.26099 5.91943 8.43628 5.97814C8.48085 5.99271 8.52671 6 8.57171 6C8.70414 6 8.83185 5.93829 8.91456 5.82857L10.0717 4.28571H13.286C13.9949 4.28571 14.5717 3.70886 14.5717 3V1.28571C14.5717 0.576857 13.9949 0 13.286 0H8.14314C7.43428 0 6.85742 0.576857 6.85742 1.28571V3C6.85742 3.70886 7.43428 4.28571 8.14314 4.28571ZM7.71456 1.28571C7.71456 1.04957 7.90699 0.857143 8.14314 0.857143H13.286C13.5221 0.857143 13.7146 1.04957 13.7146 1.28571V3C13.7146 3.23614 13.5221 3.42857 13.286 3.42857H9.85742C9.72242 3.42857 9.59557 3.492 9.51456 3.6L9.00028 4.28571V3.85714C9.00028 3.62057 8.80828 3.42857 8.57171 3.42857H8.14314C7.90699 3.42857 7.71456 3.23614 7.71456 3V1.28571Z" fill="white"/>
<path d="M12.8572 1.71423H8.57153V2.57138H12.8572V1.71423Z" fill="white"/>
<path d="M14.143 10.7142H11.5715V11.5714H14.143V10.7142Z" fill="white"/>
<path d="M11.1431 9C10.4343 9 9.85742 9.57686 9.85742 10.2857V12C9.85742 12.7089 10.4343 13.2857 11.1431 13.2857H14.5717C15.2806 13.2857 15.8574 12.7089 15.8574 12V11.7013L16.6426 10.5236C16.7304 10.392 16.7386 10.2231 16.664 10.0839C16.5894 9.94414 16.4441 9.85714 16.286 9.85714H15.7841C15.6071 9.35829 15.1306 9 14.5717 9H11.1431ZM15.0003 10.2857C15.0003 10.5223 15.1923 10.7143 15.4289 10.7143H15.485L15.0723 11.3336C15.0256 11.4039 15.0003 11.487 15.0003 11.5714V12C15.0003 12.2361 14.8079 12.4286 14.5717 12.4286H11.1431C10.907 12.4286 10.7146 12.2361 10.7146 12V10.2857C10.7146 10.0496 10.907 9.85714 11.1431 9.85714H14.5717C14.8079 9.85714 15.0003 10.0496 15.0003 10.2857Z" fill="white"/>
<path d="M10.7146 6.85693H9.85742V7.71408H10.7146V6.85693Z" fill="white"/>
<path d="M12.4287 6.85718H11.5715V7.71432H12.4287V6.85718Z" fill="white"/>
<path d="M14.1433 6.85693H13.2861V7.71408H14.1433V6.85693Z" fill="white"/>
</g>
<defs>
<clipPath id="clip0_1_5823">
<rect width="24" height="24" fill="white"/>
</clipPath>
</defs>
</svg>
