<svg width="54" height="38" viewBox="0 0 54 38" fill="none" xmlns="http://www.w3.org/2000/svg">
<g clip-path="url(#clip0_1_3468)">
<path d="M50.2967 2.92676H50.6741C51.137 2.92676 51.5144 2.78516 51.5144 2.40283C51.5144 2.11491 51.288 1.85059 50.7043 1.85059C50.5181 1.85059 50.3974 1.85059 50.3018 1.86475V2.92676H50.2967ZM50.2967 4.77702H49.6678V1.5013C49.9596 1.46354 50.2565 1.4069 50.7144 1.4069C51.2729 1.4069 51.6201 1.51546 51.8465 1.67122C52.0427 1.81755 52.1534 2.03467 52.1534 2.35091C52.1534 2.771 51.8616 3.04476 51.4842 3.13916V3.16276C51.7911 3.21468 51.9823 3.479 52.0528 3.96517C52.1383 4.47494 52.2037 4.67318 52.2641 4.77702H51.6201C51.5345 4.66846 51.4641 4.37109 51.3936 3.94157C51.3282 3.54508 51.0867 3.38932 50.654 3.38932H50.2917V4.77702H50.2967ZM50.8703 0.618652C49.4866 0.618652 48.3696 1.70898 48.3696 3.06836C48.3696 4.43245 49.4866 5.52279 50.8854 5.52279C52.2692 5.53695 53.3761 4.43245 53.3761 3.06836C53.3761 1.70426 52.2692 0.618652 50.8854 0.618652H50.8703ZM50.8854 0.123047C52.6163 0.123047 54.0001 1.43522 54.0001 3.05892C54.0001 4.71094 52.6163 6.02311 50.8703 6.02311C49.1244 6.02311 47.7104 4.71094 47.7104 3.05892C47.7104 1.43522 49.1244 0.123047 50.8703 0.123047H50.8854Z" fill="black"/>
<path d="M28.2227 0H44.7719V37.1704L28.2227 0Z" fill="#DA3832"/>
<path d="M16.5593 0H0V37.1704L16.5593 0Z" fill="#DA3832"/>
<path d="M15.1553 29.6935L22.3908 13.6973L32.9372 37.1701H26.0287L22.8739 29.6935H15.1553Z" fill="#DA3832"/>
</g>
<defs>
<clipPath id="clip0_1_3468">
<rect width="54" height="38" fill="white"/>
</clipPath>
</defs>
</svg>
