<svg width="40" height="40" viewBox="0 0 40 40" fill="none" xmlns="http://www.w3.org/2000/svg">
<path d="M27.2337 15.5374C27.907 14.9098 27.9441 13.8552 27.3165 13.1818C26.6889 12.5084 25.6343 12.4713 24.961 13.0989L20.0841 17.6443L15.5387 12.7674C14.9111 12.0941 13.8565 12.057 13.1831 12.6846C12.5098 13.3121 12.4727 14.3668 13.1003 15.0401L17.6457 19.917L12.7688 24.4624C12.0954 25.09 12.0583 26.1446 12.6859 26.8179C13.3135 27.4913 14.3681 27.5284 15.0415 26.9008L19.9183 22.3554L24.4637 27.2323C25.0913 27.9057 26.1459 27.9428 26.8193 27.3152C27.4926 26.6876 27.5297 25.633 26.9022 24.9596L22.3568 20.0827L27.2337 15.5374Z" fill="black"/>
<path fill-rule="evenodd" clip-rule="evenodd" d="M1.66797 20C1.66797 9.87474 9.87608 1.66663 20.0013 1.66663C30.1265 1.66663 38.3346 9.87474 38.3346 20C38.3346 30.1252 30.1265 38.3333 20.0013 38.3333C9.87608 38.3333 1.66797 30.1252 1.66797 20ZM20.0013 35C11.717 35 5.0013 28.2842 5.0013 20C5.0013 11.7157 11.717 4.99996 20.0013 4.99996C28.2856 4.99996 35.0013 11.7157 35.0013 20C35.0013 28.2842 28.2856 35 20.0013 35Z" fill="black"/>
</svg>
