<svg width="36" height="36" viewBox="0 0 36 36" fill="none" xmlns="http://www.w3.org/2000/svg">
<circle cx="18" cy="18" r="18" fill="#53B175"/>
<path d="M25.999 14.0619C25.999 14.552 25.8067 15.0252 25.457 15.3633L17.3269 23.239C16.9597 23.577 16.4701 23.7798 15.9631 23.7798C15.456 23.7798 14.9665 23.577 14.6168 23.239L10.543 19.3011C10.1933 18.9631 10.001 18.4899 10.001 17.9998C10.001 17.5097 10.2108 17.0533 10.5605 16.6984C10.9276 16.3604 11.3997 16.1745 11.9068 16.1576C12.4138 16.1576 12.8859 16.3435 13.253 16.6815L15.9631 19.3011L22.7469 12.7436C23.1141 12.4056 23.5862 12.2197 24.0932 12.2197C24.6003 12.2366 25.0723 12.4225 25.4395 12.7775C25.7892 13.1155 25.999 13.5718 25.999 14.0619Z" fill="white"/>
</svg>
