<svg width="24" height="24" viewBox="0 0 24 24" fill="none" xmlns="http://www.w3.org/2000/svg">
<mask id="mask0_1_10010" style="mask-type:alpha" maskUnits="userSpaceOnUse" x="0" y="0" width="24" height="24">
<rect width="24" height="24" fill="#D9D9D9"/>
</mask>
<g mask="url(#mask0_1_10010)">
<path d="M5 18.1293H6.4L15.025 10.0991L13.625 8.79569L5 16.8259V18.1293ZM19.3 8.74914L15.05 4.83879L16.45 3.53534C16.8333 3.17845 17.3042 3 17.8625 3C18.4208 3 18.8917 3.17845 19.275 3.53534L20.675 4.83879C21.0583 5.19569 21.2583 5.62629 21.275 6.1306C21.2917 6.63491 21.1083 7.06552 20.725 7.42241L19.3 8.74914ZM17.85 10.1224L7.25 19.9914H3V16.0345L13.6 6.16552L17.85 10.1224Z" fill="#1C1B1F"/>
</g>
</svg>
