<svg width="24" height="24" viewBox="0 0 24 24" fill="none" xmlns="http://www.w3.org/2000/svg">
<g clip-path="url(#clip0_1_5658)">
<rect width="24" height="24" fill="white"/>
<path d="M2.05627 9.14954H1.3291V22.77H2.05627V9.14954Z" fill="#015069"/>
<path d="M22.671 9.14954H21.9438V22.77H22.671V9.14954Z" fill="#015069"/>
<path d="M12.3634 3.99548H11.6362V6.20423H12.3634V3.99548Z" fill="#015069"/>
<path d="M9.78675 3.76415L12 1.23473L14.2133 3.76415V7.3042H24L22.164 3.6321H15.3131V4.35923H21.7146L22.8235 6.57702H14.9404V3.49096L12 0.130493L9.05958 3.49096V6.57702H1.17656L2.28548 4.35923H8.68692V3.6321H1.83605L0 7.3042H9.78675V3.76415Z" fill="#015069"/>
<path d="M23.0391 7.67688H22.3119V8.04954H1.68811V7.67688H0.960938V8.77671H23.0391V7.67688Z" fill="#015069"/>
<path d="M15.3133 23.1423H8.68701V23.8695H15.3133V23.1423Z" fill="#015069"/>
<path d="M23.7797 23.1423H15.6812V23.8695H23.7797V23.1423Z" fill="#015069"/>
<path d="M8.31871 23.1423H0.220215V23.8695H8.31871V23.1423Z" fill="#015069"/>
<path d="M14.5769 22.038H9.42334V22.7651H14.5769V22.038Z" fill="#015069"/>
<path d="M13.8362 20.561V12.4669H10.1641V20.561H10.8912V13.194H13.109V20.561H13.8362Z" fill="#015069"/>
<path d="M5.7374 20.5565V9.89014H3.16968V20.5565H5.7374ZM3.89685 10.6173H5.01032V16.8844H3.89685V10.6173ZM3.89685 17.6116H5.01032V19.8294H3.89685V17.6116Z" fill="#015069"/>
<path d="M9.05038 20.5565V9.89014H6.48267V20.5565H9.05038ZM7.20984 10.6173H8.32331V13.9395H7.20984V10.6173ZM7.20984 14.6666H8.32331V19.8294H7.20984V14.6666Z" fill="#015069"/>
<path d="M17.5172 20.5565V9.89014H14.9495V20.5565H17.5172ZM15.6766 10.6173H16.7901V11.7308H15.6766V10.6173ZM15.6766 12.4579H16.7901V19.8294H15.6766V12.4579Z" fill="#015069"/>
<path d="M20.8302 20.5565V9.89014H18.2625V20.5565H20.8302ZM18.9896 10.6173H20.1031V16.8844H18.9896V10.6173ZM18.9896 17.6116H20.1031V19.8294H18.9896V17.6116Z" fill="#015069"/>
<path d="M11.9955 17.2479H11.2683V17.9842H11.9955V17.2479Z" fill="#015069"/>
<path d="M13.8404 20.9337H10.1592V21.6609H13.8404V20.9337Z" fill="#015069"/>
</g>
<defs>
<clipPath id="clip0_1_5658">
<rect width="24" height="24" fill="white"/>
</clipPath>
</defs>
</svg>
