<svg width="38" height="38" viewBox="0 0 38 38" fill="none" xmlns="http://www.w3.org/2000/svg">
<g id="google" clip-path="url(#clip0_128_1932)">
<path id="Vector" d="M8.4216 22.964L7.09888 27.9019L2.26434 28.0042C0.819524 25.3244 0 22.2583 0 19.0001C0 15.8495 0.766235 12.8783 2.12444 10.2622H2.12548L6.42957 11.0513L8.31502 15.3296C7.9204 16.48 7.70532 17.715 7.70532 19.0001C7.70547 20.3948 7.95811 21.7312 8.4216 22.964Z" fill="#FBBB00"/>
<path id="Vector_2" d="M37.6683 15.4504C37.8865 16.5998 38.0003 17.7868 38.0003 18.9999C38.0003 20.3602 37.8573 21.687 37.5848 22.9669C36.6599 27.3223 34.2431 31.1254 30.8952 33.8168L30.8941 33.8157L25.4729 33.5391L24.7056 28.7494C26.9271 27.4466 28.6633 25.4077 29.5778 22.9669H19.418V15.4504H29.726H37.6683Z" fill="#518EF8"/>
<path id="Vector_3" d="M30.8951 33.8158L30.8961 33.8168C27.6401 36.434 23.5038 37.9999 19.0013 37.9999C11.7656 37.9999 5.47477 33.9557 2.26562 28.0041L8.42289 22.9639C10.0274 27.2461 14.1584 30.2945 19.0013 30.2945C21.0829 30.2945 23.0331 29.7318 24.7065 28.7494L30.8951 33.8158Z" fill="#28B446"/>
<path id="Vector_4" d="M31.1282 4.37416L24.973 9.41331C23.2411 8.33076 21.1939 7.70539 19.0006 7.70539C14.048 7.70539 9.83982 10.8936 8.31566 15.3294L2.12604 10.2621H2.125C5.28716 4.16538 11.6574 0 19.0006 0C23.6107 0 27.8376 1.64216 31.1282 4.37416Z" fill="#F14336"/>
</g>
<defs>
<clipPath id="clip0_128_1932">
<rect width="38" height="38" fill="white"/>
</clipPath>
</defs>
</svg>
