<svg width="36" height="36" viewBox="0 0 36 36" fill="none" xmlns="http://www.w3.org/2000/svg">
<g clip-path="url(#clip0_1205_5589)">
<path d="M17.9811 26.9797C22.924 26.9797 26.9318 22.9726 26.9318 18.0289C26.9318 13.0852 22.9247 9.07812 17.9811 9.07812C13.0374 9.07812 9.03027 13.0852 9.03027 18.0289C9.03027 22.9726 13.0374 26.9797 17.9811 26.9797Z" fill="white"/>
<path d="M10.229 22.5054L2.47914 9.08203C0.907656 11.8031 0.0800781 14.8898 0.0800781 18.0321C0.0800781 21.1744 0.906953 24.2611 2.47844 26.9822C4.04992 29.7033 6.30977 31.9624 9.03156 33.5332C11.7534 35.104 14.8401 35.9302 17.9823 35.9295L25.7322 22.5054V22.5033C24.9475 23.8645 23.8176 24.9952 22.457 25.7812C21.0965 26.5673 19.5531 26.9815 17.9816 26.9815C16.4102 26.9815 14.8668 26.568 13.5055 25.7827C12.1443 24.9973 11.0144 23.8666 10.229 22.5054Z" fill="url(#paint0_linear_1205_5589)"/>
<path d="M25.7314 22.5062L17.9815 35.9296C21.1238 35.9303 24.2105 35.1034 26.9316 33.532C29.6527 31.9612 31.9126 29.7013 33.4833 26.9802C35.0541 24.2591 35.881 21.1717 35.8803 18.0295C35.8796 14.8872 35.052 11.8005 33.4798 9.08008H17.9801L17.978 9.08148C19.5495 9.08078 21.0936 9.49351 22.4541 10.2789C23.8154 11.0643 24.9453 12.1942 25.7314 13.5548C26.5175 14.9153 26.9309 16.4594 26.9309 18.0309C26.9316 19.6016 26.5175 21.145 25.7314 22.5062Z" fill="url(#paint1_linear_1205_5589)"/>
<path d="M17.9811 25.1155C21.8947 25.1155 25.0672 21.943 25.0672 18.0295C25.0672 14.1159 21.8947 10.9434 17.9811 10.9434C14.0675 10.9434 10.895 14.1159 10.895 18.0295C10.895 21.943 14.0675 25.1155 17.9811 25.1155Z" fill="#1A73E8"/>
<path d="M17.9808 9.07969H33.4812C31.9104 6.35789 29.6506 4.09805 26.9295 2.52727C24.2084 0.955781 21.1217 0.128906 17.9794 0.128906C14.8371 0.128906 11.7504 0.956484 9.02932 2.52797C6.30822 4.09945 4.04908 6.36 2.479 9.08109L10.2288 22.5052L10.231 22.5066C9.44486 21.146 9.03002 19.6027 9.03002 18.0312C9.03002 16.4597 9.44275 14.9156 10.2281 13.5551C11.0135 12.1938 12.1435 11.0639 13.5047 10.2785C14.8653 9.49242 16.4093 9.07898 17.9808 9.07969Z" fill="url(#paint2_linear_1205_5589)"/>
</g>
<defs>
<linearGradient id="paint0_linear_1205_5589" x1="19.9184" y1="34.8114" x2="4.4174" y2="7.96285" gradientUnits="userSpaceOnUse">
<stop stop-color="#1E8E3E"/>
<stop offset="1" stop-color="#34A853"/>
</linearGradient>
<linearGradient id="paint1_linear_1205_5589" x1="15.3694" y1="35.9772" x2="30.8705" y2="9.12862" gradientUnits="userSpaceOnUse">
<stop stop-color="#FCC934"/>
<stop offset="1" stop-color="#FBBC04"/>
</linearGradient>
<linearGradient id="paint2_linear_1205_5589" x1="2.47891" y1="11.3177" x2="33.481" y2="11.3177" gradientUnits="userSpaceOnUse">
<stop stop-color="#D93025"/>
<stop offset="1" stop-color="#EA4335"/>
</linearGradient>
<clipPath id="clip0_1205_5589">
<rect width="36" height="36" fill="white"/>
</clipPath>
</defs>
</svg>
