<svg width="27" height="22" viewBox="0 0 27 22" fill="none" xmlns="http://www.w3.org/2000/svg">
<path d="M13.3332 16.6667C10.1728 16.6667 7.61447 14.2205 7.37905 11.1205L3.00823 7.74259C2.43365 8.46342 1.9049 9.2255 1.47824 10.0588C1.38292 10.2474 1.33326 10.4557 1.33326 10.667C1.33326 10.8782 1.38292 11.0865 1.47824 11.2751C3.73781 15.6838 8.21113 18.6667 13.3332 18.6667C14.4544 18.6667 15.5361 18.5001 16.5786 18.2309L14.4165 16.558C14.0595 16.627 13.6969 16.6634 13.3332 16.6667ZM26.409 19.0876L21.8028 15.5276C23.202 14.3484 24.3528 12.9027 25.1882 11.2747C25.2835 11.0861 25.3331 10.8778 25.3331 10.6665C25.3331 10.4553 25.2835 10.247 25.1882 10.0584C22.9286 5.64967 18.4553 2.66677 13.3332 2.66677C11.188 2.66937 9.07764 3.20942 7.19489 4.2376L1.89407 0.140526C1.82495 0.0867372 1.7459 0.0470969 1.66145 0.0238698C1.577 0.000642616 1.4888 -0.00571604 1.4019 0.00515716C1.31499 0.0160304 1.23107 0.0439223 1.15495 0.0872391C1.07882 0.130556 1.01198 0.188448 0.95824 0.257609L0.140326 1.31052C0.0318258 1.4501 -0.0167925 1.62706 0.0051642 1.80247C0.0271208 1.97789 0.117854 2.13741 0.257409 2.24594L24.7723 21.193C24.8415 21.2467 24.9205 21.2864 25.005 21.3096C25.0894 21.3328 25.1776 21.3392 25.2645 21.3283C25.3514 21.3175 25.4353 21.2896 25.5115 21.2462C25.5876 21.2029 25.6544 21.145 25.7082 21.0759L26.5265 20.023C26.635 19.8833 26.6835 19.7063 26.6615 19.5309C26.6394 19.3555 26.5486 19.196 26.409 19.0876ZM18.754 13.1709L17.1165 11.9051C17.2544 11.5065 17.3276 11.0884 17.3332 10.6667C17.3413 10.0494 17.2045 9.43866 16.9338 8.88372C16.6631 8.32878 16.2661 7.84507 15.7745 7.47143C15.283 7.09778 14.7106 6.84464 14.1035 6.73231C13.4963 6.61999 12.8713 6.65162 12.2786 6.82467C12.5299 7.16513 12.6658 7.57695 12.6665 8.00008C12.6603 8.14089 12.6388 8.2806 12.6024 8.41675L9.5353 6.04634C10.6007 5.15601 11.9448 4.66779 13.3332 4.66676C14.1213 4.66632 14.9017 4.82122 15.6298 5.12259C16.358 5.42396 17.0196 5.8659 17.5768 6.42314C18.134 6.98038 18.576 7.64198 18.8774 8.37013C19.1787 9.09828 19.3336 9.87869 19.3332 10.6667C19.3332 11.568 19.1128 12.408 18.754 13.1713V13.1709Z" fill="#9EB0EA"/>
</svg>
