<svg width="24" height="17" viewBox="0 0 24 17" fill="none" xmlns="http://www.w3.org/2000/svg">
<g clip-path="url(#clip0_1_4505)">
<path d="M1.31055 0H22.6895C23.4121 0.00397754 24 0.606575 24 1.34242V15.6576C24 16.3954 23.4062 17 22.6816 17H1.31055C0.589844 16.996 0 16.3934 0 15.6576V1.34242C0 0.606575 0.587891 0.00397754 1.31055 0Z" fill="#FF9933"/>
<path d="M0 5.66602H24V11.334H0V5.66602Z" fill="white"/>
<path d="M0 11.334H24V15.6576C24 16.3954 23.4062 17 22.6816 17H1.31055C0.589844 16.996 0 16.3934 0 15.6576V11.334Z" fill="#128807"/>
<path d="M14.2266 8.49962C14.2266 7.24669 13.2305 6.23242 12 6.23242C10.7695 6.23242 9.77344 7.24669 9.77344 8.49962C9.77344 9.75055 10.7695 10.7668 12 10.7668C13.2305 10.7668 14.2266 9.75254 14.2266 8.49962Z" fill="#000088"/>
<path d="M13.9492 8.50038C13.9492 7.40457 13.0781 6.51758 12.002 6.51758C10.9258 6.51758 10.0547 7.40457 10.0547 8.50038C10.0547 9.59619 10.9258 10.4832 12.002 10.4832C13.0781 10.4832 13.9492 9.59619 13.9492 8.50038Z" fill="white"/>
<path d="M12.3867 8.50029C12.3867 8.28153 12.2129 8.10254 11.998 8.10254C11.7832 8.10254 11.6094 8.27954 11.6094 8.50029C11.6094 8.71906 11.7832 8.89606 11.998 8.89606C12.2129 8.89606 12.3867 8.71906 12.3867 8.50029Z" fill="#000088"/>
<path d="M14.0264 8.77254C14.0342 8.71885 13.9951 8.66913 13.9424 8.66117C13.8897 8.65322 13.8408 8.69299 13.833 8.74669C13.8252 8.80039 13.8643 8.8501 13.917 8.85806C13.9717 8.86403 14.0205 8.82624 14.0264 8.77254Z" fill="#000088"/>
<path d="M12 10.4828L12.0664 9.29348L12 8.72668L11.9336 9.29348L12 10.4828Z" fill="#000088"/>
<path d="M13.8905 9.29726C13.912 9.24754 13.8866 9.18788 13.8378 9.16799C13.7889 9.14611 13.7304 9.17197 13.7108 9.22169C13.6893 9.27141 13.7147 9.33107 13.7636 9.35096C13.8143 9.37085 13.871 9.34698 13.8905 9.29726Z" fill="black"/>
<path d="M11.4961 10.4152L11.8633 9.28356L11.9434 8.71875L11.7344 9.24975L11.4961 10.4152Z" fill="black"/>
<path d="M13.6241 9.76855C13.6573 9.7248 13.6495 9.66315 13.6065 9.62934C13.5635 9.59553 13.503 9.60349 13.4698 9.64724C13.4366 9.69099 13.4444 9.75264 13.4874 9.78645C13.5303 9.82026 13.5909 9.81032 13.6241 9.76855Z" fill="black"/>
<path d="M11.0234 10.2187L11.666 9.2223L11.8867 8.69727L11.5508 9.15269L11.0234 10.2187Z" fill="black"/>
<path d="M13.2432 10.1527C13.2862 10.1189 13.294 10.0572 13.2608 10.0134C13.2276 9.9697 13.167 9.96174 13.1241 9.99555C13.0811 10.0294 13.0733 10.091 13.1065 10.1348C13.1397 10.1765 13.2022 10.1865 13.2432 10.1527Z" fill="black"/>
<path d="M10.625 9.90213L11.498 9.10861L11.8438 8.66113L11.4043 9.01315L10.625 9.90213Z" fill="black"/>
<path d="M12.7831 10.4252C12.8319 10.4033 12.8573 10.3456 12.8358 10.2959C12.8143 10.2462 12.7577 10.2203 12.7089 10.2422C12.66 10.2621 12.6346 10.3218 12.6561 10.3715C12.6757 10.4212 12.7323 10.4451 12.7831 10.4252Z" fill="black"/>
<path d="M10.3125 9.49244L11.3594 8.95547L11.8066 8.6134L11.291 8.83813L10.3125 9.49244Z" fill="black"/>
<path d="M12.2662 10.5647C12.319 10.5567 12.3561 10.507 12.3502 10.4533C12.3424 10.3996 12.2936 10.3618 12.2408 10.3678C12.1881 10.3758 12.151 10.4255 12.1569 10.4792C12.1627 10.5349 12.2115 10.5726 12.2662 10.5647Z" fill="black"/>
<path d="M10.1211 9.01301L11.2676 8.77038L11.7871 8.55957L11.2324 8.63912L10.1211 9.01301Z" fill="black"/>
<path d="M11.733 10.5641C11.7858 10.5721 11.8346 10.5323 11.8424 10.4786C11.8502 10.4249 11.8112 10.3752 11.7584 10.3672C11.7057 10.3593 11.6569 10.399 11.649 10.4527C11.6432 10.5084 11.6803 10.5581 11.733 10.5641Z" fill="black"/>
<path d="M10.0547 8.50024L11.2227 8.56785L11.7793 8.50024L11.2227 8.43262L10.0547 8.50024Z" fill="black"/>
<path d="M11.2159 10.4252C11.2647 10.4471 11.3233 10.4212 11.3428 10.3715C11.3623 10.3218 11.3389 10.2621 11.2901 10.2422C11.2413 10.2203 11.1827 10.2462 11.1631 10.2959C11.1436 10.3456 11.167 10.4033 11.2159 10.4252Z" fill="black"/>
<path d="M10.1211 7.9873L11.2324 8.36119L11.7871 8.44273L11.2676 8.22993L10.1211 7.9873Z" fill="black"/>
<path d="M10.7555 10.1527C10.7984 10.1865 10.859 10.1785 10.8922 10.1348C10.9254 10.091 10.9176 10.0294 10.8746 9.99555C10.8316 9.96174 10.7711 9.9697 10.7379 10.0134C10.7066 10.0572 10.7145 10.1189 10.7555 10.1527Z" fill="black"/>
<path d="M10.3125 7.50757L11.291 8.16187L11.8066 8.3866L11.3594 8.04454L10.3125 7.50757Z" fill="black"/>
<path d="M10.3754 9.76855C10.4087 9.81231 10.4692 9.82026 10.5122 9.78645C10.5551 9.75264 10.5629 9.69099 10.5297 9.64724C10.4965 9.60349 10.436 9.59553 10.393 9.62934C10.352 9.66116 10.3422 9.7248 10.3754 9.76855Z" fill="black"/>
<path d="M10.625 7.09766L11.4043 7.98664L11.8438 8.34064L11.498 7.89118L10.625 7.09766Z" fill="black"/>
<path d="M10.1084 9.29726C10.1299 9.34698 10.1866 9.37284 10.2354 9.35096C10.2842 9.32908 10.3096 9.27141 10.2881 9.22169C10.2666 9.17197 10.21 9.14611 10.1612 9.16799C10.1123 9.18788 10.0889 9.24555 10.1084 9.29726Z" fill="black"/>
<path d="M11.0234 6.78125L11.5508 7.84723L11.8867 8.30266L11.666 7.77961L11.0234 6.78125Z" fill="black"/>
<path d="M9.97369 8.77215C9.98151 8.82584 10.0303 8.86363 10.0831 8.85766C10.1358 8.84971 10.1729 8.79999 10.1671 8.74629C10.1592 8.6926 10.1104 8.65481 10.0577 8.66078C10.003 8.66674 9.96588 8.71646 9.97369 8.77215Z" fill="black"/>
<path d="M11.4961 6.58484L11.7344 7.75225L11.9434 8.28126L11.8633 7.71645L11.4961 6.58484Z" fill="black"/>
<path d="M9.97365 8.22774C9.96584 8.28143 10.0049 8.33115 10.0576 8.33911C10.1104 8.34706 10.1592 8.30729 10.167 8.25359C10.1748 8.1999 10.1358 8.15018 10.083 8.14222C10.0283 8.13625 9.97951 8.17404 9.97365 8.22774Z" fill="black"/>
<path d="M12 6.51758L11.9336 7.70686L12 8.27366L12.0664 7.70686L12 6.51758Z" fill="black"/>
<path d="M10.1132 7.7023C10.0917 7.75202 10.1171 7.81169 10.1659 7.83157C10.2147 7.85146 10.2733 7.8276 10.2929 7.77788C10.3143 7.72816 10.2889 7.6685 10.2401 7.64861C10.1893 7.62872 10.1327 7.65259 10.1132 7.7023Z" fill="black"/>
<path d="M12.502 6.58496L12.1348 7.71657L12.0547 8.28138L12.2637 7.75237L12.502 6.58496Z" fill="black"/>
<path d="M10.376 7.23318C10.3428 7.27693 10.3506 7.33858 10.3936 7.37239C10.4366 7.4062 10.4971 7.39824 10.5303 7.35449C10.5635 7.31074 10.5557 7.24909 10.5128 7.21528C10.4698 7.18147 10.4092 7.18942 10.376 7.23318Z" fill="black"/>
<path d="M12.9727 6.78125L12.3301 7.77961L12.1094 8.30266L12.4453 7.84723L12.9727 6.78125Z" fill="black"/>
<path d="M10.7569 6.84725C10.7139 6.88105 10.7061 6.94271 10.7393 6.98646C10.7725 7.03021 10.8331 7.03817 10.876 7.00436C10.919 6.97055 10.9268 6.9089 10.8936 6.86514C10.8604 6.82139 10.7979 6.81543 10.7569 6.84725Z" fill="black"/>
<path d="M13.375 7.09766L12.502 7.89118L12.1562 8.34064L12.5957 7.98664L13.375 7.09766Z" fill="black"/>
<path d="M11.2159 6.57647C11.167 6.59835 11.1436 6.65602 11.1631 6.70574C11.1846 6.75546 11.2413 6.78131 11.2901 6.75944C11.3389 6.73756 11.3643 6.67989 11.3428 6.63017C11.3233 6.57846 11.2666 6.55459 11.2159 6.57647Z" fill="black"/>
<path d="M13.6895 7.50781L12.6426 8.04478L12.1953 8.38685L12.7109 8.16212L13.6895 7.50781Z" fill="black"/>
<path d="M11.733 6.43559C11.6803 6.44354 11.6432 6.49326 11.649 6.54696C11.6569 6.60065 11.7057 6.63844 11.7584 6.63247C11.8112 6.62452 11.8502 6.5748 11.8424 6.5211C11.8365 6.46741 11.7877 6.42763 11.733 6.43559Z" fill="black"/>
<path d="M13.8809 7.9873L12.7344 8.22993L12.2148 8.44273L12.7695 8.36119L13.8809 7.9873Z" fill="black"/>
<path d="M12.2666 6.43559C12.2139 6.42763 12.1651 6.46741 12.1572 6.5211C12.1494 6.5748 12.1885 6.62452 12.2412 6.63247C12.294 6.64043 12.3428 6.60065 12.3506 6.54696C12.3565 6.49326 12.3194 6.44155 12.2666 6.43559Z" fill="black"/>
<path d="M13.9473 8.49999L12.7793 8.43237L12.2227 8.49999L12.7793 8.56761L13.9473 8.49999Z" fill="black"/>
<path d="M12.7831 6.57717C12.7343 6.55529 12.6757 6.58115 12.6561 6.63087C12.6346 6.68059 12.66 6.74025 12.7089 6.76014C12.7577 6.78003 12.8163 6.75616 12.8358 6.70644C12.8554 6.65473 12.8319 6.59706 12.7831 6.57717Z" fill="black"/>
<path d="M13.8809 9.01313L12.7695 8.63924L12.2148 8.55969L12.7344 8.7705L13.8809 9.01313Z" fill="black"/>
<path d="M13.2432 6.84711C13.2003 6.8133 13.1397 6.82126 13.1065 6.86501C13.0733 6.90876 13.0811 6.97042 13.1241 7.00423C13.167 7.03803 13.2276 7.03008 13.2608 6.98633C13.294 6.94257 13.2862 6.88092 13.2432 6.84711Z" fill="black"/>
<path d="M13.6895 9.49232L12.7109 8.83801L12.1953 8.61328L12.6426 8.95535L13.6895 9.49232Z" fill="black"/>
<path d="M13.6241 7.23318C13.5909 7.18942 13.5303 7.18147 13.4874 7.21528C13.4444 7.24909 13.4366 7.31074 13.4698 7.35449C13.503 7.39824 13.5635 7.4062 13.6065 7.37239C13.6475 7.33858 13.6573 7.27494 13.6241 7.23318Z" fill="black"/>
<path d="M13.375 9.90213L12.5957 9.01315L12.1562 8.66113L12.502 9.10861L13.375 9.90213Z" fill="black"/>
<path d="M13.8905 7.70216C13.869 7.65244 13.8124 7.62658 13.7636 7.64846C13.7147 7.67034 13.6893 7.72801 13.7108 7.77773C13.7323 7.82745 13.7889 7.85132 13.8378 7.83143C13.8866 7.81154 13.91 7.75387 13.8905 7.70216Z" fill="black"/>
<path d="M12.9727 10.2187L12.4453 9.15269L12.1094 8.69727L12.3301 9.2223L12.9727 10.2187Z" fill="black"/>
<path d="M14.026 8.22774C14.0182 8.17404 13.9694 8.13625 13.9166 8.14222C13.8639 8.15018 13.8268 8.1999 13.8326 8.25359C13.8405 8.30729 13.8893 8.34508 13.942 8.33911C13.9967 8.33314 14.0338 8.28342 14.026 8.22774Z" fill="black"/>
<path d="M12.502 10.4152L12.2637 9.24975L12.0547 8.71875L12.1348 9.28356L12.502 10.4152Z" fill="black"/>
</g>
<defs>
<clipPath id="clip0_1_4505">
<rect width="24" height="17" fill="white"/>
</clipPath>
</defs>
</svg>
