<svg width="24" height="24" viewBox="0 0 24 24" fill="none" xmlns="http://www.w3.org/2000/svg">
<mask id="mask0_1_4677" style="mask-type:alpha" maskUnits="userSpaceOnUse" x="0" y="0" width="24" height="24">
<rect width="24" height="24" fill="#D9D9D9"/>
</mask>
<g mask="url(#mask0_1_4677)">
<path d="M6.7 12.3C6.51667 12.1167 6.425 11.8834 6.425 11.6C6.425 11.3167 6.51667 11.0834 6.7 10.9L11.3 6.30002C11.4 6.20002 11.5083 6.12919 11.625 6.08752C11.7417 6.04586 11.8667 6.02502 12 6.02502C12.1333 6.02502 12.2625 6.05002 12.3875 6.10002C12.5125 6.15002 12.6167 6.21669 12.7 6.30002L17.3 10.9C17.4833 11.0834 17.575 11.3167 17.575 11.6C17.575 11.8834 17.4833 12.1167 17.3 12.3C17.1167 12.4834 16.8833 12.575 16.6 12.575C16.3167 12.575 16.0833 12.4834 15.9 12.3L12 8.40002L8.1 12.3C7.91667 12.4834 7.68333 12.575 7.4 12.575C7.11667 12.575 6.88333 12.4834 6.7 12.3ZM7 18C6.71667 18 6.47917 17.9042 6.2875 17.7125C6.09583 17.5209 6 17.2834 6 17C6 16.7167 6.09583 16.4792 6.2875 16.2875C6.47917 16.0959 6.71667 16 7 16H17C17.2833 16 17.5208 16.0959 17.7125 16.2875C17.9042 16.4792 18 16.7167 18 17C18 17.2834 17.9042 17.5209 17.7125 17.7125C17.5208 17.9042 17.2833 18 17 18H7Z" fill="#1C1B1F"/>
</g>
</svg>
