<svg width="24" height="24" viewBox="0 0 24 24" fill="none" xmlns="http://www.w3.org/2000/svg">
<mask id="mask0_2_15222" style="mask-type:alpha" maskUnits="userSpaceOnUse" x="0" y="0" width="24" height="24">
<rect width="24" height="24" fill="#D9D9D9"/>
</mask>
<g mask="url(#mask0_2_15222)">
<path d="M11.9998 15.9758C11.8665 15.9758 11.7373 15.9508 11.6123 15.9008C11.4873 15.8508 11.3831 15.7841 11.2998 15.7008L6.6998 11.1008C6.51647 10.9174 6.4248 10.6841 6.4248 10.4008C6.4248 10.1174 6.51647 9.88411 6.6998 9.70078C6.88314 9.51745 7.11647 9.42578 7.3998 9.42578C7.68314 9.42578 7.91647 9.51745 8.0998 9.70078L11.9998 13.6008L15.8998 9.70078C16.0831 9.51745 16.3165 9.42578 16.5998 9.42578C16.8831 9.42578 17.1165 9.51745 17.2998 9.70078C17.4831 9.88411 17.5748 10.1174 17.5748 10.4008C17.5748 10.6841 17.4831 10.9174 17.2998 11.1008L12.6998 15.7008C12.5998 15.8008 12.4915 15.8716 12.3748 15.9133C12.2581 15.9549 12.1331 15.9758 11.9998 15.9758Z" fill="#1C1B1F"/>
</g>
</svg>
