<svg width="24" height="24" viewBox="0 0 24 24" fill="none" xmlns="http://www.w3.org/2000/svg">
<path fill-rule="evenodd" clip-rule="evenodd" d="M0.572266 10.3999C0.572266 3.69436 6.3978 0.612983 12.1027 0.59892C17.8074 0.584858 23.482 4.00303 23.482 10.3431C23.482 16.6833 23.4826 20.2442 23.4826 20.2442L22.8914 20.7249L21.5687 20.7312L21.1544 20.2087C21.1544 20.2087 21.0862 15.5216 21.0862 10.3143C21.0862 5.1068 17.1548 2.93878 12.0086 2.93414C6.86242 2.9295 2.89314 5.06883 2.89314 10.3328V20.3493L2.33542 20.8264H1.24094L0.572266 20.3493V10.3999Z" fill="#5380A0"/>
<path fill-rule="evenodd" clip-rule="evenodd" d="M14.7809 14.3793C15.5399 14.3793 15.3389 14.3438 16.9493 14.3438C18.5601 14.3438 19.8044 15.5634 19.8044 17.0781V20.4315C19.8044 22.101 18.518 23.3509 16.9413 23.3509C15.3644 23.3509 15.5566 23.3319 14.7711 23.3414C13.9855 23.3508 13.3157 22.7071 13.3157 21.8634C13.3157 21.0196 13.3405 16.5497 13.3405 15.734C13.3405 14.9183 14.0218 14.3795 14.7809 14.3795V14.3793ZM15.5141 16.5843L15.5292 21.1742C15.5292 21.1742 16.6311 21.1742 16.9529 21.1681C17.2746 21.1622 17.6733 20.8042 17.6733 20.431C17.6733 20.0576 17.7481 17.7915 17.7481 17.412C17.7481 17.0326 17.4123 16.5843 16.9769 16.5694C16.5414 16.5544 15.5141 16.5843 15.5141 16.5843ZM7.16057 14.372C8.73951 14.3653 8.58609 14.372 9.31804 14.372C10.05 14.372 10.7669 14.9887 10.7784 15.7528C10.79 16.5168 10.7784 21.2048 10.7669 21.941C10.7555 22.6772 10.1669 23.3311 9.31804 23.3311C8.46937 23.3311 8.62813 23.3035 7.13118 23.3173C5.63423 23.3311 4.2959 21.9769 4.2959 20.4373C4.2959 18.8977 4.38885 18.5732 4.3423 17.0944C4.2959 15.6156 5.58163 14.3789 7.16057 14.372ZM6.42187 17.342C6.42187 17.7367 6.43495 20.0205 6.43495 20.4521C6.43495 20.8835 6.75276 21.1437 7.19151 21.1437C7.63026 21.1437 8.60859 21.1373 8.60859 21.1373V16.5459C8.60859 16.5459 7.5937 16.5285 7.2074 16.5285C6.82096 16.5285 6.42187 16.9474 6.42187 17.342Z" fill="#5380A0"/>
</svg>
