<svg width="49" height="48" viewBox="0 0 49 48" fill="none" xmlns="http://www.w3.org/2000/svg">
<path d="M8.57402 22.8147L5.76953 0.185059H10.1087L11.7755 15.5782L13.2569 0.185059H17.5961L14.7916 22.8147H8.57402Z" fill="black"/>
<path d="M18.6797 22.815V0.211426H23.0714V22.815H18.6797Z" fill="black"/>
<path d="M24.8992 22.815V0.211426H29.45V18.9728H34.1329V22.8142H24.8984L24.8992 22.815Z" fill="black"/>
<path d="M36.3256 21.499C35.408 20.482 34.9492 18.8413 34.9492 16.5784V14.3677H39.4205V17.1837C39.4205 18.3067 39.782 18.8674 40.5057 18.8674C40.9112 18.8674 41.1938 18.7491 41.3522 18.5125C41.5113 18.2752 41.5909 17.8773 41.5909 17.315C41.5909 16.5784 41.502 15.9693 41.3259 15.4861C41.1491 15.0037 40.9243 14.6005 40.6509 14.2756C40.3775 13.9514 39.8878 13.4468 39.1826 12.7624L37.2246 10.8152C35.7077 9.34191 34.9492 7.71042 34.9492 5.92069C34.9492 3.99117 35.3949 2.52252 36.2854 1.5132C37.176 0.504657 38.4774 0 40.1882 0C42.2342 0 43.7072 0.539222 44.607 1.61843C45.5068 2.69688 45.9563 4.38598 45.9563 6.68421H41.3259L41.2997 5.13183C41.2997 4.8338 41.2155 4.59721 41.0479 4.42131C40.8803 4.24618 40.6462 4.15785 40.3466 4.15785C39.9936 4.15785 39.7287 4.25463 39.5526 4.44743C39.3757 4.641 39.2884 4.9037 39.2884 5.23706C39.2884 5.97369 39.7117 6.73721 40.5582 7.52607L43.2043 10.0524C43.8215 10.6493 44.3328 11.2146 44.739 11.7492C45.1445 12.2846 45.4705 12.916 45.7176 13.6442C45.9648 14.3723 46.0884 15.2365 46.0884 16.2358C46.0884 18.4634 45.6782 20.1525 44.858 21.3016C44.0377 22.4507 42.6838 23.0253 40.7969 23.0253C38.7331 23.0253 37.2424 22.5168 36.3256 21.499Z" fill="black"/>
<path d="M0 47.2406V43.6289C0 43.5651 0.051749 43.5137 0.115856 43.5137H4.51452C4.57863 43.5137 4.63037 43.5651 4.63037 43.6289V47.2406C4.63037 47.3044 4.57863 47.3558 4.51452 47.3558H0.115856C0.051749 47.3558 0 47.3044 0 47.2406Z" fill="url(#paint0_linear_128_1825)"/>
<path d="M18.9727 47.356V24.7524H23.3644V47.356H18.9727Z" fill="black"/>
<path d="M14.7916 24.7261L17.5961 47.3557H13.2569L11.5901 31.9626L10.1087 47.3557H5.76953L8.57402 24.7261H14.7916Z" fill="black"/>
<path d="M26.4062 35.9469H31.1285C31.1285 32.359 34.0527 29.4508 37.6605 29.4508V24.7515C31.446 24.7515 26.4062 29.7635 26.4062 35.9461V35.9469Z" fill="url(#paint1_linear_128_1825)"/>
<path d="M48.9183 35.9429H44.196C44.196 39.5308 41.2718 42.4389 37.6641 42.4389V47.1383C43.8786 47.1383 48.9183 42.1263 48.9183 35.9436V35.9429Z" fill="url(#paint2_linear_128_1825)"/>
<mask id="mask0_128_1825" style="mask-type:luminance" maskUnits="userSpaceOnUse" x="37" y="35" width="12" height="13">
<path d="M48.9222 35.9429H44.1999C44.1999 39.5308 41.2757 42.4389 37.668 42.4389V47.1383C43.8825 47.1383 48.9222 42.1263 48.9222 35.9436V35.9429Z" fill="white"/>
</mask>
<g mask="url(#mask0_128_1825)">
<path d="M46.5 37.9849H51.6116" stroke="white" stroke-width="0.258025" stroke-miterlimit="10" stroke-linecap="round"/>
<path d="M37.668 38.9771H51.8997" stroke="white" stroke-width="0.258025" stroke-miterlimit="10" stroke-linecap="round"/>
<path d="M37.668 39.9692H51.8997" stroke="white" stroke-width="0.258025" stroke-miterlimit="10" stroke-linecap="round"/>
<path d="M37.668 40.9614H51.8997" stroke="white" stroke-width="0.258025" stroke-miterlimit="10" stroke-linecap="round"/>
<path d="M37.668 41.9536H51.8997" stroke="white" stroke-width="0.258025" stroke-miterlimit="10" stroke-linecap="round"/>
<path d="M37.668 42.9443H51.8997" stroke="white" stroke-width="0.258025" stroke-miterlimit="10" stroke-linecap="round"/>
<path d="M37.668 43.9365H51.8997" stroke="white" stroke-width="0.258025" stroke-miterlimit="10" stroke-linecap="round"/>
<path d="M37.668 44.9287H51.8997" stroke="white" stroke-width="0.258025" stroke-miterlimit="10" stroke-linecap="round"/>
<path d="M37.668 45.9209H51.8997" stroke="white" stroke-width="0.258025" stroke-miterlimit="10" stroke-linecap="round"/>
<path d="M37.668 46.9131H51.8997" stroke="white" stroke-width="0.258025" stroke-miterlimit="10" stroke-linecap="round"/>
</g>
<path d="M46.5425 38.191C46.6051 37.85 46.7086 37.6057 46.7912 37.4536C46.8236 37.3945 46.7572 37.3284 46.6993 37.3622C46.0073 37.7632 45.7045 38.3477 45.6666 38.817C45.6342 39.2218 45.9115 39.6382 46.3324 39.7142C46.7526 39.7902 47.1558 39.5122 47.2322 39.0943C47.3118 38.6557 47.0013 38.2348 46.5433 38.191H46.5425Z" fill="white"/>
<path d="M44.8159 38.191C44.8785 37.85 44.982 37.6057 45.0646 37.4536C45.0971 37.3945 45.0307 37.3284 44.9727 37.3622C44.2807 37.7632 43.9779 38.3477 43.9401 38.817C43.9076 39.2218 44.1849 39.6382 44.6059 39.7142C45.026 39.7902 45.4292 39.5122 45.5057 39.0943C45.5852 38.6557 45.2747 38.2348 44.8167 38.191H44.8159Z" fill="white"/>
<mask id="mask1_128_1825" style="mask-type:luminance" maskUnits="userSpaceOnUse" x="26" y="24" width="12" height="12">
<path d="M26.4062 35.9473H31.1285C31.1285 32.3594 34.0527 29.4513 37.6605 29.4513V24.752C31.446 24.752 26.4062 29.764 26.4062 35.9466V35.9473Z" fill="white"/>
</mask>
<g mask="url(#mask1_128_1825)">
<path d="M36.3067 26.2607H36.0116V26.4896H36.3067C36.5469 26.4896 36.7423 26.2953 36.7423 26.0564V25.7361H36.5121V26.0564C36.5121 26.1693 36.4202 26.2607 36.3067 26.2607ZM36.0116 24.6753V24.9042H36.3067C36.4202 24.9042 36.5121 24.9964 36.5121 25.1093V25.3758H36.7423V25.1093C36.7423 24.8696 36.5469 24.6753 36.3067 24.6753H36.0116ZM35.1481 25.7361H34.918V26.0564C34.918 26.2953 35.1134 26.4896 35.3544 26.4896H35.6494V26.2607H35.3544C35.2408 26.2607 35.1481 26.1693 35.1481 26.0564V25.7361ZM34.918 25.1093V25.3758H35.1481V25.1093C35.1481 24.9964 35.2408 24.9042 35.3544 24.9042H35.6494V24.6753H35.3544C35.1134 24.6753 34.918 24.8696 34.918 25.1093Z" fill="white"/>
<path d="M38.752 26.2607H38.457V26.4896H38.752C38.9922 26.4896 39.1876 26.2953 39.1876 26.0564V25.7361H38.9575V26.0564C38.9575 26.1693 38.8655 26.2607 38.752 26.2607ZM38.457 24.6753V24.9042H38.752C38.8655 24.9042 38.9575 24.9964 38.9575 25.1093V25.3758H39.1876V25.1093C39.1876 24.8696 38.9922 24.6753 38.752 24.6753H38.457ZM37.5934 25.7361H37.3633V26.0564C37.3633 26.2953 37.5587 26.4896 37.7997 26.4896H38.0947V26.2607H37.7997C37.6861 26.2607 37.5934 26.1693 37.5934 26.0564V25.7361ZM37.3633 25.1093V25.3758H37.5934V25.1093C37.5934 24.9964 37.6861 24.9042 37.7997 24.9042H38.0947V24.6753H37.7997C37.5587 24.6753 37.3633 24.8696 37.3633 25.1093Z" fill="white"/>
<path d="M33.8809 26.2607H33.5859V26.4896H33.8809C34.1211 26.4896 34.3165 26.2953 34.3165 26.0564V25.7361H34.0864V26.0564C34.0864 26.1693 33.9945 26.2607 33.8809 26.2607ZM33.5859 24.6753V24.9042H33.8809C33.9945 24.9042 34.0864 24.9964 34.0864 25.1093V25.3758H34.3165V25.1093C34.3165 24.8696 34.1211 24.6753 33.8809 24.6753H33.5859ZM32.7224 25.7361H32.4922V26.0564C32.4922 26.2953 32.6876 26.4896 32.9286 26.4896H33.2236V26.2607H32.9286C32.815 26.2607 32.7224 26.1693 32.7224 26.0564V25.7361ZM32.4922 25.1093V25.3758H32.7224V25.1093C32.7224 24.9964 32.815 24.9042 32.9286 24.9042H33.2236V24.6753H32.9286C32.6876 24.6753 32.4922 24.8696 32.4922 25.1093Z" fill="white"/>
<path d="M31.4551 26.2607H31.1601V26.4896H31.4551C31.6953 26.4896 31.8908 26.2953 31.8908 26.0564V25.7361H31.6606V26.0564C31.6606 26.1693 31.5687 26.2607 31.4551 26.2607ZM31.1601 24.6753V24.9042H31.4551C31.5687 24.9042 31.6606 24.9964 31.6606 25.1093V25.3758H31.8908V25.1093C31.8908 24.8696 31.6953 24.6753 31.4551 24.6753H31.1601ZM30.2966 25.7361H30.0664V26.0564C30.0664 26.2953 30.2618 26.4896 30.5028 26.4896H30.7978V26.2607H30.5028C30.3893 26.2607 30.2966 26.1693 30.2966 26.0564V25.7361ZM30.0664 25.1093V25.3758H30.2966V25.1093C30.2966 24.9964 30.3893 24.9042 30.5028 24.9042H30.7978V24.6753H30.5028C30.2618 24.6753 30.0664 24.8696 30.0664 25.1093Z" fill="white"/>
<path d="M36.3067 30.8144H36.0116V31.0433H36.3067C36.5469 31.0433 36.7423 30.849 36.7423 30.6101V30.2898H36.5121V30.6101C36.5121 30.723 36.4202 30.8144 36.3067 30.8144ZM36.0116 29.229V29.4579H36.3067C36.4202 29.4579 36.5121 29.5501 36.5121 29.663V29.9295H36.7423V29.663C36.7423 29.4233 36.5469 29.229 36.3067 29.229H36.0116ZM35.1481 30.2898H34.918V30.6101C34.918 30.849 35.1134 31.0433 35.3544 31.0433H35.6494V30.8144H35.3544C35.2408 30.8144 35.1481 30.723 35.1481 30.6101V30.2898ZM34.918 29.663V29.9295H35.1481V29.663C35.1481 29.5501 35.2408 29.4579 35.3544 29.4579H35.6494V29.229H35.3544C35.1134 29.229 34.918 29.4233 34.918 29.663Z" fill="white"/>
<path d="M35.0918 28.5376H34.7968V28.7665H35.0918C35.3321 28.7665 35.5275 28.5721 35.5275 28.3332V28.0129H35.2973V28.3332C35.2973 28.4461 35.2054 28.5376 35.0918 28.5376ZM34.7968 26.9521V27.181H35.0918C35.2054 27.181 35.2973 27.2732 35.2973 27.3861V27.6527H35.5275V27.3861C35.5275 27.1465 35.3321 26.9521 35.0918 26.9521H34.7968ZM33.9333 28.0129H33.7031V28.3332C33.7031 28.5721 33.8985 28.7665 34.1395 28.7665H34.4346V28.5376H34.1395C34.026 28.5376 33.9333 28.4461 33.9333 28.3332V28.0129ZM33.7031 27.3861V27.6527H33.9333V27.3861C33.9333 27.2732 34.026 27.181 34.1395 27.181H34.4346V26.9521H34.1395C33.8985 26.9521 33.7031 27.1465 33.7031 27.3861Z" fill="white"/>
<path d="M32.6856 28.5376H32.3906V28.7665H32.6856C32.9258 28.7665 33.1212 28.5721 33.1212 28.3332V28.0129H32.8911V28.3332C32.8911 28.4461 32.7991 28.5376 32.6856 28.5376ZM32.3906 26.9521V27.181H32.6856C32.7991 27.181 32.8911 27.2732 32.8911 27.3861V27.6527H33.1212V27.3861C33.1212 27.1465 32.9258 26.9521 32.6856 26.9521H32.3906ZM31.527 28.0129H31.2969V28.3332C31.2969 28.5721 31.4923 28.7665 31.7333 28.7665H32.0283V28.5376H31.7333C31.6197 28.5376 31.527 28.4461 31.527 28.3332V28.0129ZM31.2969 27.3861V27.6527H31.527V27.3861C31.527 27.2732 31.6197 27.181 31.7333 27.181H32.0283V26.9521H31.7333C31.4923 26.9521 31.2969 27.1465 31.2969 27.3861Z" fill="white"/>
<path d="M30.2989 28.5376H30.0038V28.7665H30.2989C30.5391 28.7665 30.7345 28.5721 30.7345 28.3332V28.0129H30.5043V28.3332C30.5043 28.4461 30.4124 28.5376 30.2989 28.5376ZM30.0038 26.9521V27.181H30.2989C30.4124 27.181 30.5043 27.2732 30.5043 27.3861V27.6527H30.7345V27.3861C30.7345 27.1465 30.5391 26.9521 30.2989 26.9521H30.0038ZM29.1403 28.0129H28.9102V28.3332C28.9102 28.5721 29.1056 28.7665 29.3465 28.7665H29.6416V28.5376H29.3465C29.233 28.5376 29.1403 28.4461 29.1403 28.3332V28.0129ZM28.9102 27.3861V27.6527H29.1403V27.3861C29.1403 27.2732 29.233 27.181 29.3465 27.181H29.6416V26.9521H29.3465C29.1056 26.9521 28.9102 27.1465 28.9102 27.3861Z" fill="white"/>
<path d="M37.502 28.5376H37.207V28.7665H37.502C37.7422 28.7665 37.9376 28.5721 37.9376 28.3332V28.0129H37.7075V28.3332C37.7075 28.4461 37.6155 28.5376 37.502 28.5376ZM37.207 26.9521V27.181H37.502C37.6155 27.181 37.7075 27.2732 37.7075 27.3861V27.6527H37.9376V27.3861C37.9376 27.1465 37.7422 26.9521 37.502 26.9521H37.207ZM36.3434 28.0129H36.1133V28.3332C36.1133 28.5721 36.3087 28.7665 36.5497 28.7665H36.8447V28.5376H36.5497C36.4361 28.5376 36.3434 28.4461 36.3434 28.3332V28.0129ZM36.1133 27.3861V27.6527H36.3434V27.3861C36.3434 27.2732 36.4361 27.181 36.5497 27.181H36.8447V26.9521H36.5497C36.3087 26.9521 36.1133 27.1465 36.1133 27.3861Z" fill="white"/>
<path d="M33.8809 30.8144H33.5859V31.0433H33.8809C34.1211 31.0433 34.3165 30.849 34.3165 30.6101V30.2898H34.0864V30.6101C34.0864 30.723 33.9945 30.8144 33.8809 30.8144ZM33.5859 29.229V29.4579H33.8809C33.9945 29.4579 34.0864 29.5501 34.0864 29.663V29.9295H34.3165V29.663C34.3165 29.4233 34.1211 29.229 33.8809 29.229H33.5859ZM32.7224 30.2898H32.4922V30.6101C32.4922 30.849 32.6876 31.0433 32.9286 31.0433H33.2236V30.8144H32.9286C32.815 30.8144 32.7224 30.723 32.7224 30.6101V30.2898ZM32.4922 29.663V29.9295H32.7224V29.663C32.7224 29.5501 32.815 29.4579 32.9286 29.4579H33.2236V29.229H32.9286C32.6876 29.229 32.4922 29.4233 32.4922 29.663Z" fill="white"/>
<path d="M31.4551 30.8144H31.1601V31.0433H31.4551C31.6953 31.0433 31.8908 30.849 31.8908 30.6101V30.2898H31.6606V30.6101C31.6606 30.723 31.5687 30.8144 31.4551 30.8144ZM31.1601 29.229V29.4579H31.4551C31.5687 29.4579 31.6606 29.5501 31.6606 29.663V29.9295H31.8908V29.663C31.8908 29.4233 31.6953 29.229 31.4551 29.229H31.1601ZM30.2966 30.2898H30.0664V30.6101C30.0664 30.849 30.2618 31.0433 30.5028 31.0433H30.7978V30.8144H30.5028C30.3893 30.8144 30.2966 30.723 30.2966 30.6101V30.2898ZM30.0664 29.663V29.9295H30.2966V29.663C30.2966 29.5501 30.3893 29.4579 30.5028 29.4579H30.7978V29.229H30.5028C30.2618 29.229 30.0664 29.4233 30.0664 29.663Z" fill="white"/>
<path d="M29.0528 30.8144H28.7577V31.0433H29.0528C29.293 31.0433 29.4884 30.849 29.4884 30.6101V30.2898H29.2582V30.6101C29.2582 30.723 29.1663 30.8144 29.0528 30.8144ZM28.7577 29.229V29.4579H29.0528C29.1663 29.4579 29.2582 29.5501 29.2582 29.663V29.9295H29.4884V29.663C29.4884 29.4233 29.293 29.229 29.0528 29.229H28.7577ZM27.8942 30.2898H27.6641V30.6101C27.6641 30.849 27.8595 31.0433 28.1005 31.0433H28.3955V30.8144H28.1005C27.9869 30.8144 27.8942 30.723 27.8942 30.6101V30.2898ZM27.6641 29.663V29.9295H27.8942V29.663C27.8942 29.5501 27.9869 29.4579 28.1005 29.4579H28.3955V29.229H28.1005C27.8595 29.229 27.6641 29.4233 27.6641 29.663Z" fill="white"/>
<path d="M36.3067 35.3676H36.0116V35.5965H36.3067C36.5469 35.5965 36.7423 35.4022 36.7423 35.1633V34.843H36.5121V35.1633C36.5121 35.2762 36.4202 35.3676 36.3067 35.3676ZM36.0116 33.7822V34.0111H36.3067C36.4202 34.0111 36.5121 34.1033 36.5121 34.2162V34.4828H36.7423V34.2162C36.7423 33.9766 36.5469 33.7822 36.3067 33.7822H36.0116ZM35.1481 34.843H34.918V35.1633C34.918 35.4022 35.1134 35.5965 35.3544 35.5965H35.6494V35.3676H35.3544C35.2408 35.3676 35.1481 35.2762 35.1481 35.1633V34.843ZM34.918 34.2162V34.4828H35.1481V34.2162C35.1481 34.1033 35.2408 34.0111 35.3544 34.0111H35.6494V33.7822H35.3544C35.1134 33.7822 34.918 33.9766 34.918 34.2162Z" fill="white"/>
<path d="M35.0918 33.0922H34.7968V33.3211H35.0918C35.3321 33.3211 35.5275 33.1268 35.5275 32.8879V32.5676H35.2973V32.8879C35.2973 33.0008 35.2054 33.0922 35.0918 33.0922ZM34.7968 31.5068V31.7357H35.0918C35.2054 31.7357 35.2973 31.8279 35.2973 31.9408V32.2074H35.5275V31.9408C35.5275 31.7012 35.3321 31.5068 35.0918 31.5068H34.7968ZM33.9333 32.5676H33.7031V32.8879C33.7031 33.1268 33.8985 33.3211 34.1395 33.3211H34.4346V33.0922H34.1395C34.026 33.0922 33.9333 33.0008 33.9333 32.8879V32.5676ZM33.7031 31.9408V32.2074H33.9333V31.9408C33.9333 31.8279 34.026 31.7357 34.1395 31.7357H34.4346V31.5068H34.1395C33.8985 31.5068 33.7031 31.7012 33.7031 31.9408Z" fill="white"/>
<path d="M32.6856 33.0922H32.3906V33.3211H32.6856C32.9258 33.3211 33.1212 33.1268 33.1212 32.8879V32.5676H32.8911V32.8879C32.8911 33.0008 32.7991 33.0922 32.6856 33.0922ZM32.3906 31.5068V31.7357H32.6856C32.7991 31.7357 32.8911 31.8279 32.8911 31.9408V32.2074H33.1212V31.9408C33.1212 31.7012 32.9258 31.5068 32.6856 31.5068H32.3906ZM31.527 32.5676H31.2969V32.8879C31.2969 33.1268 31.4923 33.3211 31.7333 33.3211H32.0283V33.0922H31.7333C31.6197 33.0922 31.527 33.0008 31.527 32.8879V32.5676ZM31.2969 31.9408V32.2074H31.527V31.9408C31.527 31.8279 31.6197 31.7357 31.7333 31.7357H32.0283V31.5068H31.7333C31.4923 31.5068 31.2969 31.7012 31.2969 31.9408Z" fill="white"/>
<path d="M30.2989 33.0922H30.0038V33.3211H30.2989C30.5391 33.3211 30.7345 33.1268 30.7345 32.8879V32.5676H30.5043V32.8879C30.5043 33.0008 30.4124 33.0922 30.2989 33.0922ZM30.0038 31.5068V31.7357H30.2989C30.4124 31.7357 30.5043 31.8279 30.5043 31.9408V32.2074H30.7345V31.9408C30.7345 31.7012 30.5391 31.5068 30.2989 31.5068H30.0038ZM29.1403 32.5676H28.9102V32.8879C28.9102 33.1268 29.1056 33.3211 29.3465 33.3211H29.6416V33.0922H29.3465C29.233 33.0922 29.1403 33.0008 29.1403 32.8879V32.5676ZM28.9102 31.9408V32.2074H29.1403V31.9408C29.1403 31.8279 29.233 31.7357 29.3465 31.7357H29.6416V31.5068H29.3465C29.1056 31.5068 28.9102 31.7012 28.9102 31.9408Z" fill="white"/>
<path d="M27.959 33.0922H27.664V33.3211H27.959C28.1992 33.3211 28.3947 33.1268 28.3947 32.8879V32.5676H28.1645V32.8879C28.1645 33.0008 28.0726 33.0922 27.959 33.0922ZM27.664 31.5068V31.7357H27.959C28.0726 31.7357 28.1645 31.8279 28.1645 31.9408V32.2074H28.3947V31.9408C28.3947 31.7012 28.1992 31.5068 27.959 31.5068H27.664ZM26.8005 32.5676H26.5703V32.8879C26.5703 33.1268 26.7657 33.3211 27.0067 33.3211H27.3017V33.0922H27.0067C26.8932 33.0922 26.8005 33.0008 26.8005 32.8879V32.5676ZM26.5703 31.9408V32.2074H26.8005V31.9408C26.8005 31.8279 26.8932 31.7357 27.0067 31.7357H27.3017V31.5068H27.0067C26.7657 31.5068 26.5703 31.7012 26.5703 31.9408Z" fill="white"/>
<path d="M37.502 33.0922H37.207V33.3211H37.502C37.7422 33.3211 37.9376 33.1268 37.9376 32.8879V32.5676H37.7075V32.8879C37.7075 33.0008 37.6155 33.0922 37.502 33.0922ZM37.207 31.5068V31.7357H37.502C37.6155 31.7357 37.7075 31.8279 37.7075 31.9408V32.2074H37.9376V31.9408C37.9376 31.7012 37.7422 31.5068 37.502 31.5068H37.207ZM36.3434 32.5676H36.1133V32.8879C36.1133 33.1268 36.3087 33.3211 36.5497 33.3211H36.8447V33.0922H36.5497C36.4361 33.0922 36.3434 33.0008 36.3434 32.8879V32.5676ZM36.1133 31.9408V32.2074H36.3434V31.9408C36.3434 31.8279 36.4361 31.7357 36.5497 31.7357H36.8447V31.5068H36.5497C36.3087 31.5068 36.1133 31.7012 36.1133 31.9408Z" fill="white"/>
<path d="M33.8809 35.3676H33.5859V35.5965H33.8809C34.1211 35.5965 34.3165 35.4022 34.3165 35.1633V34.843H34.0864V35.1633C34.0864 35.2762 33.9945 35.3676 33.8809 35.3676ZM33.5859 33.7822V34.0111H33.8809C33.9945 34.0111 34.0864 34.1033 34.0864 34.2162V34.4828H34.3165V34.2162C34.3165 33.9766 34.1211 33.7822 33.8809 33.7822H33.5859ZM32.7224 34.843H32.4922V35.1633C32.4922 35.4022 32.6876 35.5965 32.9286 35.5965H33.2236V35.3676H32.9286C32.815 35.3676 32.7224 35.2762 32.7224 35.1633V34.843ZM32.4922 34.2162V34.4828H32.7224V34.2162C32.7224 34.1033 32.815 34.0111 32.9286 34.0111H33.2236V33.7822H32.9286C32.6876 33.7822 32.4922 33.9766 32.4922 34.2162Z" fill="white"/>
<path d="M31.4551 35.3676H31.1601V35.5965H31.4551C31.6953 35.5965 31.8908 35.4022 31.8908 35.1633V34.843H31.6606V35.1633C31.6606 35.2762 31.5687 35.3676 31.4551 35.3676ZM31.1601 33.7822V34.0111H31.4551C31.5687 34.0111 31.6606 34.1033 31.6606 34.2162V34.4828H31.8908V34.2162C31.8908 33.9766 31.6953 33.7822 31.4551 33.7822H31.1601ZM30.2966 34.843H30.0664V35.1633C30.0664 35.4022 30.2618 35.5965 30.5028 35.5965H30.7978V35.3676H30.5028C30.3893 35.3676 30.2966 35.2762 30.2966 35.1633V34.843ZM30.0664 34.2162V34.4828H30.2966V34.2162C30.2966 34.1033 30.3893 34.0111 30.5028 34.0111H30.7978V33.7822H30.5028C30.2618 33.7822 30.0664 33.9766 30.0664 34.2162Z" fill="white"/>
<path d="M29.0528 35.3676H28.7577V35.5965H29.0528C29.293 35.5965 29.4884 35.4022 29.4884 35.1633V34.843H29.2582V35.1633C29.2582 35.2762 29.1663 35.3676 29.0528 35.3676ZM28.7577 33.7822V34.0111H29.0528C29.1663 34.0111 29.2582 34.1033 29.2582 34.2162V34.4828H29.4884V34.2162C29.4884 33.9766 29.293 33.7822 29.0528 33.7822H28.7577ZM27.8942 34.843H27.6641V35.1633C27.6641 35.4022 27.8595 35.5965 28.1005 35.5965H28.3955V35.3676H28.1005C27.9869 35.3676 27.8942 35.2762 27.8942 35.1633V34.843ZM27.6641 34.2162V34.4828H27.8942V34.2162C27.8942 34.1033 27.9869 34.0111 28.1005 34.0111H28.3955V33.7822H28.1005C27.8595 33.7822 27.6641 33.9766 27.6641 34.2162Z" fill="white"/>
<path d="M26.6817 35.3676H26.3866V35.5965H26.6817C26.9219 35.5965 27.1173 35.4022 27.1173 35.1633V34.843H26.8871V35.1633C26.8871 35.2762 26.7952 35.3676 26.6817 35.3676ZM26.3866 33.7822V34.0111H26.6817C26.7952 34.0111 26.8871 34.1033 26.8871 34.2162V34.4828H27.1173V34.2162C27.1173 33.9766 26.9219 33.7822 26.6817 33.7822H26.3866ZM25.5231 34.843H25.293V35.1633C25.293 35.4022 25.4884 35.5965 25.7294 35.5965H26.0244V35.3676H25.7294C25.6158 35.3676 25.5231 35.2762 25.5231 35.1633V34.843ZM25.293 34.2162V34.4828H25.5231V34.2162C25.5231 34.1033 25.6158 34.0111 25.7294 34.0111H26.0244V33.7822H25.7294C25.4884 33.7822 25.293 33.9766 25.293 34.2162Z" fill="white"/>
</g>
<mask id="mask2_128_1825" style="mask-type:luminance" maskUnits="userSpaceOnUse" x="37" y="24" width="12" height="12">
<path d="M37.6602 24.752V29.4483C41.2679 29.4483 44.1921 32.3564 44.1921 35.9443H48.9175C48.9175 29.764 43.8778 24.752 37.6609 24.752H37.6602Z" fill="white"/>
</mask>
<g mask="url(#mask2_128_1825)">
<path d="M38.3962 24.7837H36.9766V29.4508H38.3962V24.7837Z" fill="url(#paint3_linear_128_1825)"/>
<path d="M46.1799 28.6142L45.1836 27.6084L41.8404 30.8837L42.8366 31.8895L46.1799 28.6142Z" fill="url(#paint4_linear_128_1825)"/>
<path d="M47.8108 31.0748L47.1133 29.8452L43.0259 32.1384L43.7235 33.3681L47.8108 31.0748Z" fill="url(#paint5_linear_128_1825)"/>
<path d="M41.3039 25.3536L39.9336 24.9849L38.7079 29.49L40.0782 29.8587L41.3039 25.3536Z" fill="url(#paint6_linear_128_1825)"/>
<path d="M48.741 33.8755L48.3906 32.5073L43.8429 33.6593L44.1933 35.0274L48.741 33.8755Z" fill="url(#paint7_linear_128_1825)"/>
<path d="M43.9563 26.6647L42.7305 25.9526L40.3635 29.9826L41.5893 30.6947L43.9563 26.6647Z" fill="url(#paint8_linear_128_1825)"/>
<path d="M48.8967 36.8155L48.918 35.4038L44.2256 35.3338L44.2043 36.7454L48.8967 36.8155Z" fill="url(#paint9_linear_128_1825)"/>
</g>
<path d="M37.664 45.7764V47.1352C37.3782 47.1352 37.0924 47.1237 36.812 47.1037C36.3664 46.6205 36.1084 45.7395 35.8257 44.7701C35.6859 44.2839 35.4596 43.5135 35.2827 43.1978C34.9398 43.3453 34.274 43.8599 33.8562 44.1818C33.0761 44.7847 32.367 45.3301 31.7383 45.4607C31.4124 45.529 31.1119 45.4891 30.8323 45.2871C30.552 45.0828 30.4153 44.8093 30.3836 44.4767C30.3148 43.8369 30.6207 42.9927 30.9582 42.0633C31.1359 41.574 31.4186 40.7928 31.4526 40.4287C31.0926 40.3519 30.2716 40.3772 29.7518 40.3949C28.7516 40.4264 27.8425 40.4571 27.2478 40.1906C26.9419 40.0569 26.7218 39.8434 26.6129 39.5108C26.5071 39.1867 26.5611 38.8879 26.7303 38.6067C27.0477 38.0606 27.7791 37.5636 28.5855 37.0205C29.0343 36.7133 29.7572 36.2248 29.9974 35.9429H31.132C31.132 36.2102 31.149 36.4775 31.1838 36.7363C30.8238 37.2256 30.1604 37.6742 29.3888 38.195C29.0682 38.4109 28.6087 38.7235 28.2966 38.9793C28.7137 39.0046 29.303 38.9877 29.7062 38.9739C30.6099 38.9455 31.3869 38.9201 31.9531 39.0929C32.2504 39.1813 32.4906 39.3288 32.6559 39.5561C32.8243 39.7866 32.8907 40.0592 32.8876 40.3749C32.876 40.9664 32.6103 41.6969 32.3014 42.5472C32.1639 42.9228 31.97 43.4682 31.8665 43.8661C32.2126 43.6471 32.6667 43.3007 32.9788 43.0588C33.7048 42.5019 34.3281 42.018 34.8966 41.8275C35.068 41.7675 35.2341 41.7368 35.394 41.7368C35.5145 41.7368 35.6311 41.7568 35.7485 41.7937C36.0173 41.882 36.2312 42.064 36.4058 42.3198C36.7402 42.7976 36.9549 43.5281 37.2006 44.3753C37.321 44.7878 37.4948 45.3931 37.6609 45.7825C37.6609 45.7795 37.664 45.7795 37.664 45.7771V45.7764Z" fill="url(#paint10_linear_128_1825)"/>
<defs>
<linearGradient id="paint0_linear_128_1825" x1="0" y1="45.4347" x2="4.63037" y2="45.4347" gradientUnits="userSpaceOnUse">
<stop stop-color="#037AD6"/>
<stop offset="1" stop-color="#03DDAF"/>
</linearGradient>
<linearGradient id="paint1_linear_128_1825" x1="26.4062" y1="30.3488" x2="37.6597" y2="30.3488" gradientUnits="userSpaceOnUse">
<stop stop-color="#037AD6"/>
<stop offset="1" stop-color="#03DDAF"/>
</linearGradient>
<linearGradient id="paint2_linear_128_1825" x1="37.6641" y1="41.5402" x2="48.9183" y2="41.5402" gradientUnits="userSpaceOnUse">
<stop stop-color="#037AD6"/>
<stop offset="1" stop-color="#03DDAF"/>
</linearGradient>
<linearGradient id="paint3_linear_128_1825" x1="36.9766" y1="27.1172" x2="38.3962" y2="27.1172" gradientUnits="userSpaceOnUse">
<stop stop-color="#037AD6"/>
<stop offset="1" stop-color="#03DDAF"/>
</linearGradient>
<linearGradient id="paint4_linear_128_1825" x1="41.8414" y1="29.748" x2="46.1814" y2="29.748" gradientUnits="userSpaceOnUse">
<stop stop-color="#037AD6"/>
<stop offset="1" stop-color="#03DDAF"/>
</linearGradient>
<linearGradient id="paint5_linear_128_1825" x1="43.0243" y1="31.6075" x2="47.8091" y2="31.6075" gradientUnits="userSpaceOnUse">
<stop stop-color="#037AD6"/>
<stop offset="1" stop-color="#03DDAF"/>
</linearGradient>
<linearGradient id="paint6_linear_128_1825" x1="38.7062" y1="27.4239" x2="41.3029" y2="27.4239" gradientUnits="userSpaceOnUse">
<stop stop-color="#037AD6"/>
<stop offset="1" stop-color="#03DDAF"/>
</linearGradient>
<linearGradient id="paint7_linear_128_1825" x1="43.8409" y1="33.7713" x2="48.7385" y2="33.7713" gradientUnits="userSpaceOnUse">
<stop stop-color="#037AD6"/>
<stop offset="1" stop-color="#03DDAF"/>
</linearGradient>
<linearGradient id="paint8_linear_128_1825" x1="40.366" y1="28.3208" x2="43.9583" y2="28.3208" gradientUnits="userSpaceOnUse">
<stop stop-color="#037AD6"/>
<stop offset="1" stop-color="#03DDAF"/>
</linearGradient>
<linearGradient id="paint9_linear_128_1825" x1="44.2063" y1="36.0731" x2="48.9201" y2="36.0731" gradientUnits="userSpaceOnUse">
<stop stop-color="#037AD6"/>
<stop offset="1" stop-color="#03DDAF"/>
</linearGradient>
<linearGradient id="paint10_linear_128_1825" x1="26.5588" y1="41.5394" x2="37.664" y2="41.5394" gradientUnits="userSpaceOnUse">
<stop stop-color="#037AD6"/>
<stop offset="1" stop-color="#03DDAF"/>
</linearGradient>
</defs>
</svg>
