<svg width="25" height="25" viewBox="0 0 25 25" fill="none" xmlns="http://www.w3.org/2000/svg">
<path d="M20.957 4.2265H4.04297C3.60718 4.2265 3.25391 4.57978 3.25391 5.01556V16.8671C3.25391 17.3029 3.60718 17.6562 4.04297 17.6562H20.957C21.3928 17.6562 21.7461 17.3029 21.7461 16.8671V5.01556C21.7461 4.57978 21.3928 4.2265 20.957 4.2265Z" stroke="#8B8BDC" stroke-width="1.17188"/>
<path d="M3.25391 15.1016H21.7461" stroke="#8B8BDC" stroke-width="1.17188"/>
<path d="M9.00391 20.7735C9.57296 20.5073 10.0267 20.0445 10.2815 19.4703C10.5363 18.896 10.5751 18.249 10.3906 17.6485" stroke="#8B8BDC" stroke-width="1.17188"/>
<path d="M16.3437 20.7735C15.7741 20.508 15.3198 20.0452 15.0649 19.4708C14.81 18.8963 14.7717 18.249 14.957 17.6485" stroke="#8B8BDC" stroke-width="1.17188"/>
<path d="M6.83594 20.7735H18.1641" stroke="#8B8BDC" stroke-width="1.17188" stroke-linecap="round"/>
<path d="M6.5625 7.49225L7.69531 8.28522L9.09766 6.31256" stroke="#8B8BDC" stroke-width="1.17188"/>
<path d="M6.39844 11.3204L7.52734 12.1094L8.92969 10.1368" stroke="#8B8BDC" stroke-width="1.17188"/>
<path d="M11.1719 7.60938H19.3047" stroke="#8B8BDC" stroke-width="1.17188"/>
<path d="M11.1719 11.586H19.3047" stroke="#8B8BDC" stroke-width="1.17188"/>
</svg>
