<svg width="24" height="24" viewBox="0 0 24 24" fill="none" xmlns="http://www.w3.org/2000/svg">
<g id="interview-svgrepo-com 1" clip-path="url(#clip0_589_2657)">
<g id="Group">
<g id="Group_2">
<path id="Vector" d="M5.14174 10.2854C6.55988 10.2854 7.71317 9.13215 7.71317 7.71401C7.71317 6.29586 6.55988 5.14258 5.14174 5.14258C3.7236 5.14258 2.57031 6.29586 2.57031 7.71401C2.57031 9.13215 3.7236 10.2854 5.14174 10.2854ZM5.14174 5.99972C6.08717 5.99972 6.85603 6.76858 6.85603 7.71401C6.85603 8.65944 6.08717 9.42829 5.14174 9.42829C4.19631 9.42829 3.42746 8.65944 3.42746 7.71401C3.42746 6.76858 4.19631 5.99972 5.14174 5.99972Z" fill="black"/>
<path id="Vector_2" d="M18.8566 10.2854C20.2747 10.2854 21.428 9.13215 21.428 7.71401C21.428 6.29586 20.2747 5.14258 18.8566 5.14258C17.4384 5.14258 16.2852 6.29586 16.2852 7.71401C16.2852 9.13215 17.4384 10.2854 18.8566 10.2854ZM18.8566 5.99972C19.802 5.99972 20.5709 6.76858 20.5709 7.71401C20.5709 8.65944 19.802 9.42829 18.8566 9.42829C17.9112 9.42829 17.1423 8.65944 17.1423 7.71401C17.1423 6.76858 17.9112 5.99972 18.8566 5.99972Z" fill="black"/>
<path id="Vector_3" d="M23.1429 11.1426V16.714C23.1429 17.4229 22.566 17.9997 21.8571 17.9997V13.2854C21.8571 12.1039 20.8959 11.1426 19.7143 11.1426H17.5714C17.3349 11.1426 17.1429 11.3346 17.1429 11.5711V13.2854V13.714V14.1426H13.7143C13.4777 14.1426 13.2857 14.3346 13.2857 14.5711V15.8569H10.7143V14.5711C10.7143 14.3346 10.5223 14.1426 10.2857 14.1426H6.85714V13.714V13.2854V11.5711C6.85714 11.3346 6.66514 11.1426 6.42857 11.1426H4.28571C3.10414 11.1426 2.14286 12.1039 2.14286 13.2854V17.9997C1.434 17.9997 0.857143 17.4229 0.857143 16.714V11.1426H0V16.714C0 17.5904 0.530143 18.3434 1.28571 18.6751V23.9997H2.14286V18.8569H2.57143H3H6.42857V23.5711C6.42857 23.8077 6.62057 23.9997 6.85714 23.9997H8.14286H8.57143H9V23.5711V17.1426V16.714H10.2857H13.7143H15V17.1426V23.5711V23.9997H15.4286H15.8571H17.1429C17.3794 23.9997 17.5714 23.8077 17.5714 23.5711V18.8569H21H21.4286H21.8571V23.9997H22.7143V18.6751C23.4699 18.3434 24 17.5904 24 16.714V11.1426H23.1429ZM8.57143 15.8569H7.71429H5.14286V13.2854H4.28571V16.2854C4.28571 16.522 4.47771 16.714 4.71429 16.714H7.71429C7.95043 16.714 8.14286 16.9064 8.14286 17.1426V23.1426H7.28571V18.4283C7.28571 18.1917 7.09371 17.9997 6.85714 17.9997H3V13.2854C3 12.5766 3.57686 11.9997 4.28571 11.9997H6V13.2854V13.714V14.5711C6 14.8077 6.192 14.9997 6.42857 14.9997H9.85714V15.8569H8.57143ZM17.1429 17.9997C16.9063 17.9997 16.7143 18.1917 16.7143 18.4283V23.1426H15.8571V17.1426C15.8571 16.9064 16.0496 16.714 16.2857 16.714H19.2857C19.5223 16.714 19.7143 16.522 19.7143 16.2854V13.2854H18.8571V15.8569H16.2857H15.4286H14.1429V14.9997H17.5714C17.808 14.9997 18 14.8077 18 14.5711V13.714V13.2854V11.9997H19.7143C20.4231 11.9997 21 12.5766 21 13.2854V17.9997H17.1429Z" fill="black"/>
<path id="Vector_4" d="M8.14509 4.28571V5.57143C8.14509 5.75614 8.26295 5.91943 8.43823 5.97814C8.4828 5.99271 8.52866 6 8.57366 6C8.70609 6 8.8338 5.93829 8.91652 5.82857L10.0737 4.28571H13.2879C13.9968 4.28571 14.5737 3.70886 14.5737 3V1.28571C14.5737 0.576857 13.9968 0 13.2879 0H8.14509C7.43623 0 6.85938 0.576857 6.85938 1.28571V3C6.85938 3.70886 7.43623 4.28571 8.14509 4.28571ZM7.71652 1.28571C7.71652 1.04957 7.90895 0.857143 8.14509 0.857143H13.2879C13.5241 0.857143 13.7165 1.04957 13.7165 1.28571V3C13.7165 3.23614 13.5241 3.42857 13.2879 3.42857H9.85938C9.72438 3.42857 9.59752 3.492 9.51652 3.6L9.00223 4.28571V3.85714C9.00223 3.62057 8.81023 3.42857 8.57366 3.42857H8.14509C7.90895 3.42857 7.71652 3.23614 7.71652 3V1.28571Z" fill="black"/>
<path id="Vector_5" d="M12.856 1.71387H8.57031V2.57101H12.856V1.71387Z" fill="black"/>
<path id="Vector_6" d="M14.1417 10.7139H11.5703V11.571H14.1417V10.7139Z" fill="black"/>
<path id="Vector_7" d="M11.1451 9C10.4362 9 9.85938 9.57686 9.85938 10.2857V12C9.85938 12.7089 10.4362 13.2857 11.1451 13.2857H14.5737C15.2825 13.2857 15.8594 12.7089 15.8594 12V11.7013L16.6445 10.5236C16.7324 10.392 16.7405 10.2231 16.6659 10.0839C16.5914 9.94414 16.4461 9.85714 16.2879 9.85714H15.7861C15.6091 9.35829 15.1325 9 14.5737 9H11.1451ZM15.0022 10.2857C15.0022 10.5223 15.1942 10.7143 15.4308 10.7143H15.4869L15.0742 11.3336C15.0275 11.4039 15.0022 11.487 15.0022 11.5714V12C15.0022 12.2361 14.8098 12.4286 14.5737 12.4286H11.1451C10.9089 12.4286 10.7165 12.2361 10.7165 12V10.2857C10.7165 10.0496 10.9089 9.85714 11.1451 9.85714H14.5737C14.8098 9.85714 15.0022 10.0496 15.0022 10.2857Z" fill="black"/>
<path id="Vector_8" d="M10.7165 6.85742H9.85938V7.71456H10.7165V6.85742Z" fill="black"/>
<path id="Vector_9" d="M12.4275 6.85742H11.5703V7.71456H12.4275V6.85742Z" fill="black"/>
<path id="Vector_10" d="M14.1423 6.85742H13.2852V7.71456H14.1423V6.85742Z" fill="black"/>
</g>
</g>
</g>
<defs>
<clipPath id="clip0_589_2657">
<rect width="24" height="24" fill="white"/>
</clipPath>
</defs>
</svg>
