<svg width="20" height="20" viewBox="0 0 20 20" fill="none" xmlns="http://www.w3.org/2000/svg">
<path d="M3.7 10C3.7 6.52061 6.52061 3.7 10 3.7M14.0499 5.95L9.99991 10M19 10C19 14.9705 14.9705 19 10 19C5.02943 19 1 14.9705 1 10C1 5.02943 5.02943 1 10 1C14.9705 1 19 5.02943 19 10ZM10.9 10C10.9 10.4971 10.4971 10.9 10 10.9C9.50293 10.9 9.1 10.4971 9.1 10C9.1 9.50293 9.50293 9.1 10 9.1C10.4971 9.1 10.9 9.50293 10.9 10Z" stroke="#C3CDD5" stroke-width="2" stroke-linecap="round" stroke-linejoin="round"/>
</svg>
