<svg width="18" height="18" viewBox="0 0 18 18" fill="none" xmlns="http://www.w3.org/2000/svg">
<path fill-rule="evenodd" clip-rule="evenodd" d="M9 0C4.02944 0 0 4.02944 0 9C0 13.9706 4.02944 18 9 18C13.9706 18 18 13.9706 18 9C18 4.02944 13.9706 0 9 0ZM1.8 9C1.8 12.9764 5.02355 16.2 9 16.2C12.9764 16.2 16.2 12.9764 16.2 9C16.2 5.02355 12.9764 1.8 9 1.8C5.02355 1.8 1.8 5.02355 1.8 9Z" fill="#C3CDD5"/>
<path d="M8.27015 13.2112C8.27015 12.8032 8.60093 12.4724 9.00896 12.4724C9.41699 12.4724 9.74776 12.8032 9.74776 13.2112C9.74776 13.6192 9.41699 13.95 9.00896 13.95C8.60093 13.95 8.27015 13.6192 8.27015 13.2112ZM9.25523 4.05C11.9149 4.15836 13.0675 6.83776 11.5012 8.83746C11.0875 9.33 10.4275 9.65507 10.0925 10.0787C9.92165 10.2886 9.83547 10.5155 9.792 10.7509C9.71791 11.1522 9.41699 11.4873 9.00896 11.4873C8.60093 11.4873 8.26228 11.1562 8.2805 10.7486C8.30346 10.2352 8.37731 9.79751 8.61493 9.45806C8.94 8.96552 9.6 8.67 10.0137 8.34492C11.2254 7.23179 10.9102 5.66552 9.25523 5.53746C8.69889 5.53746 8.20797 5.85054 7.95626 6.31578C7.7621 6.67466 7.44684 7.02493 7.03881 7.02493C6.63077 7.02493 6.29061 6.6891 6.39024 6.29342C6.71517 5.00297 7.87931 4.05 9.25523 4.05Z" fill="#C3CDD5"/>
</svg>
