<svg width="24" height="24" viewBox="0 0 24 24" fill="none" xmlns="http://www.w3.org/2000/svg">
<g clip-path="url(#clip0_1_5884)">
<path d="M8.4001 10.4H7.6001V11.2H8.4001V10.4Z" fill="black"/>
<path d="M8.4001 12H7.6001V12.8H8.4001V12Z" fill="black"/>
<path d="M7.6001 5.2H8.4001C9.5201 5.2 10.4001 4.32 10.4001 3.2V2C10.4001 0.88 9.5201 0 8.4001 0H7.6001C6.4801 0 5.6001 0.88 5.6001 2V3.2C5.6001 4.32 6.4801 5.2 7.6001 5.2ZM6.4001 2C6.4001 1.32 6.9201 0.8 7.6001 0.8H8.4001C9.0801 0.8 9.6001 1.32 9.6001 2V3.2C9.6001 3.88 9.0801 4.4 8.4001 4.4H7.6001C6.9201 4.4 6.4001 3.88 6.4001 3.2V2Z" fill="black"/>
<path d="M23.6 13.6H12.8V8.39998C12.8 6.83998 11.56 5.59998 10 5.59998H6C4.44 5.59998 3.2 6.83998 3.2 8.39998V13.6H0.4C0.16 13.6 0 13.76 0 14V16.4C0 16.64 0.16 16.8 0.4 16.8H1.6V24H2.4V16.8H20V16H2H0.8V14.4H23.2V16H22C21.76 16 21.6 16.16 21.6 16.4V24H22.4V16.8H23.6C23.84 16.8 24 16.64 24 16.4V14C24 13.76 23.84 13.6 23.6 13.6ZM8.68 6.39998L8.04 8.07998L7.4 6.39998H8.68ZM4 8.39998C4 7.27998 4.88 6.39998 6 6.39998H6.52L7.64 9.35998C7.68 9.47998 7.84 9.59998 8 9.59998C8.16 9.59998 8.32 9.47998 8.44 9.35998L9.56 6.39998H10C11.12 6.39998 12 7.27998 12 8.39998V13.6H10.8V9.59998H10V13.6H6V9.59998H5.2V13.6H4V8.39998Z" fill="black"/>
<path d="M23.6001 1.19995H14.0001C13.7601 1.19995 13.6001 1.35995 13.6001 1.59995V7.19995C13.6001 7.43995 13.7601 7.59995 14.0001 7.59995H16.0001V9.19995C16.0001 9.35995 16.0801 9.51995 16.2401 9.55995C16.2801 9.59995 16.3601 9.59995 16.4001 9.59995C16.5201 9.59995 16.6001 9.55995 16.6801 9.47995L18.5601 7.59995H23.6001C23.8401 7.59995 24.0001 7.43995 24.0001 7.19995V1.59995C24.0001 1.35995 23.8401 1.19995 23.6001 1.19995ZM23.2001 6.79995H18.4001C18.2801 6.79995 18.2001 6.83995 18.1201 6.91995L16.8001 8.23995V7.19995C16.8001 6.95995 16.6401 6.79995 16.4001 6.79995H14.4001V1.99995H23.2001V6.79995Z" fill="black"/>
<path d="M18.0001 3.19995H15.6001V3.99995H18.0001V3.19995Z" fill="black"/>
<path d="M21.2 3.19995H18.8V3.99995H21.2V3.19995Z" fill="black"/>
<path d="M22.0001 4.80005H15.6001V5.60005H22.0001V4.80005Z" fill="black"/>
<path d="M14.0001 18.8H10.0001C9.7601 18.8 9.6001 18.96 9.6001 19.2V21.6C9.6001 21.84 9.7601 22 10.0001 22H14.0001C14.2401 22 14.4001 21.84 14.4001 21.6V19.2C14.4001 18.96 14.2401 18.8 14.0001 18.8ZM13.6001 21.2H10.4001V19.6H13.6001V21.2Z" fill="black"/>
<path d="M16.8 19.2H16V20H16.8V19.2Z" fill="black"/>
<path d="M18.4001 19.2H17.6001V20H18.4001V19.2Z" fill="black"/>
<path d="M20 19.2H19.2V20H20V19.2Z" fill="black"/>
<path d="M16.8 20.8H16V21.6H16.8V20.8Z" fill="black"/>
<path d="M18.4001 20.8H17.6001V21.6H18.4001V20.8Z" fill="black"/>
<path d="M20 20.8H19.2V21.6H20V20.8Z" fill="black"/>
<path d="M4.8 19.2H4V20H4.8V19.2Z" fill="black"/>
<path d="M6.4001 19.2H5.6001V20H6.4001V19.2Z" fill="black"/>
<path d="M7.99995 19.2H7.19995V20H7.99995V19.2Z" fill="black"/>
<path d="M4.8 20.8H4V21.6H4.8V20.8Z" fill="black"/>
<path d="M6.4001 20.8H5.6001V21.6H6.4001V20.8Z" fill="black"/>
<path d="M7.99995 20.8H7.19995V21.6H7.99995V20.8Z" fill="black"/>
</g>
<defs>
<clipPath id="clip0_1_5884">
<rect width="24" height="24" fill="white"/>
</clipPath>
</defs>
</svg>
