<svg width="60" height="60" viewBox="0 0 60 60" fill="none" xmlns="http://www.w3.org/2000/svg">
<g clip-path="url(#clip0_1_10875)">
<path d="M20.0617 58.4981L12.7623 47.5406H5.62422C3.18484 47.5406 1.19922 45.555 1.19922 43.1156V24.3656C1.19922 21.9262 3.18484 19.9406 5.62422 19.9406H27.4492V5.62495C27.4492 3.18558 29.4348 1.19995 31.8742 1.19995H54.3742C56.8155 1.19995 58.7992 3.18558 58.7992 5.62495V20.625C58.7992 23.0643 56.8136 25.0499 54.3742 25.0499H49.1673L45.6048 32.1768L44.3955 31.5731L48.1455 24.0731C48.2617 23.8443 48.4942 23.7 48.7492 23.7H54.3742C56.0692 23.7 57.4492 22.32 57.4492 20.625V5.62495C57.4492 3.92995 56.0711 2.54995 54.3742 2.54995H31.8742C30.1792 2.54995 28.7992 3.92995 28.7992 5.62495V19.9406H33.7492C35.9636 19.9406 37.8011 21.5737 38.1236 23.7H43.1242V25.0499H38.1742V43.1156C38.1742 45.5568 36.1886 47.5406 33.7492 47.5406H20.6242V46.1887H33.7492C35.4442 46.1887 36.8242 44.8106 36.8242 43.1137V24.3637C36.8242 22.6687 35.4461 21.2887 33.7492 21.2887H5.62422C3.92922 21.2887 2.54922 22.6687 2.54922 24.3637V43.1137C2.54922 44.8087 3.92922 46.1887 5.62422 46.1887H13.1242C13.3511 46.1887 13.5611 46.3031 13.6867 46.4906L21.1867 57.75L20.0617 58.4981ZM43.833 15.9281H42.4811C42.4811 13.6425 42.888 12.7837 44.3711 11.9362C45.4117 11.3418 45.8336 10.6875 45.8336 9.67683C45.8336 7.87308 44.3786 7.2337 43.1317 7.2337C41.6092 7.2337 40.4148 8.30808 40.4148 9.67683H39.063C39.063 7.55058 40.8498 5.8837 43.1317 5.8837C45.5167 5.8837 47.1855 7.4437 47.1855 9.67683C47.1855 11.655 45.9611 12.5812 45.0405 13.1081C44.0617 13.6687 43.833 13.995 43.833 15.9281ZM21.5617 33.75C21.5617 34.785 20.7217 35.625 19.6867 35.625C18.6517 35.625 17.8117 34.785 17.8117 33.75C17.8117 32.715 18.6517 31.875 19.6867 31.875C20.7217 31.875 21.5617 32.715 21.5617 33.75ZM29.0617 31.875C28.0267 31.875 27.1867 32.715 27.1867 33.75C27.1867 34.785 28.0267 35.625 29.0617 35.625C30.0967 35.625 30.9367 34.785 30.9367 33.75C30.9367 32.715 30.0967 31.875 29.0617 31.875ZM10.3117 31.875C9.27672 31.875 8.43672 32.715 8.43672 33.75C8.43672 34.785 9.27672 35.625 10.3117 35.625C11.3467 35.625 12.1867 34.785 12.1867 33.75C12.1867 32.715 11.3467 31.875 10.3117 31.875ZM43.1242 19.9218C43.7711 19.9218 44.2961 19.3968 44.2961 18.75C44.2961 18.1031 43.7711 17.5781 43.1242 17.5781C42.4773 17.5781 41.9523 18.1031 41.9523 18.75C41.9523 19.3968 42.4773 19.9218 43.1242 19.9218Z" fill="#36A9FE"/>
</g>
<defs>
<clipPath id="clip0_1_10875">
<rect width="60" height="60" fill="white"/>
</clipPath>
</defs>
</svg>
