<svg width="60" height="60" viewBox="0 0 60 60" fill="none" xmlns="http://www.w3.org/2000/svg">
<path d="M10.0875 55.5397C13.579 55.5397 16.4095 52.7093 16.4095 49.2178C16.4095 45.7263 13.579 42.8959 10.0875 42.8959C6.59604 42.8959 3.76562 45.7263 3.76562 49.2178C3.76562 52.7093 6.59604 55.5397 10.0875 55.5397Z" fill="#EAFBEC"/>
<path d="M10.0875 56.7115C5.95539 56.7115 2.59375 53.3497 2.59375 49.2177C2.59375 45.0856 5.95551 41.7239 10.0875 41.7239C14.2196 41.7239 17.5812 45.0856 17.5812 49.2177C17.5812 53.3497 14.2196 56.7115 10.0875 56.7115ZM10.0875 44.0677C7.24785 44.0677 4.9375 46.378 4.9375 49.2178C4.9375 52.0576 7.24785 54.3678 10.0875 54.3678C12.9272 54.3678 15.2375 52.0576 15.2375 49.2178C15.2375 46.378 12.9273 44.0677 10.0875 44.0677Z" fill="#444B54"/>
<path d="M10.0875 36.3219C13.579 36.3219 16.4095 33.4915 16.4095 30C16.4095 26.5085 13.579 23.6781 10.0875 23.6781C6.59604 23.6781 3.76562 26.5085 3.76562 30C3.76562 33.4915 6.59604 36.3219 10.0875 36.3219Z" fill="#EAFBEC"/>
<path d="M10.0875 37.4938C5.95539 37.4938 2.59375 34.132 2.59375 30C2.59375 25.868 5.95551 22.5062 10.0875 22.5062C14.2196 22.5062 17.5812 25.868 17.5812 30C17.5812 34.132 14.2196 37.4938 10.0875 37.4938ZM10.0875 24.85C7.24785 24.85 4.9375 27.1602 4.9375 30C4.9375 32.8398 7.24785 35.1501 10.0875 35.1501C12.9272 35.1501 15.2375 32.8398 15.2375 30C15.2375 27.1602 12.9273 24.85 10.0875 24.85Z" fill="#444B54"/>
<path d="M10.0875 17.1042C13.579 17.1042 16.4095 14.2737 16.4095 10.7822C16.4095 7.29074 13.579 4.46033 10.0875 4.46033C6.59604 4.46033 3.76562 7.29074 3.76562 10.7822C3.76562 14.2737 6.59604 17.1042 10.0875 17.1042Z" fill="#EAFBEC"/>
<path d="M10.0875 18.276C5.95539 18.276 2.59375 14.9143 2.59375 10.7822C2.59375 6.65021 5.95551 3.28845 10.0875 3.28845C14.2196 3.28845 17.5812 6.65021 17.5812 10.7822C17.5812 14.9143 14.2196 18.276 10.0875 18.276ZM10.0875 5.63232C7.24785 5.63232 4.9375 7.94255 4.9375 10.7824C4.9375 13.6222 7.24785 15.9324 10.0875 15.9324C12.9272 15.9324 15.2375 13.6222 15.2375 10.7824C15.2375 7.94255 12.9273 5.63232 10.0875 5.63232Z" fill="#444B54"/>
<path d="M8.32812 28.7496C8.01992 28.7496 7.71758 28.6242 7.49961 28.4063C7.28164 28.1883 7.15625 27.886 7.15625 27.5778C7.15625 27.2684 7.28152 26.966 7.49961 26.7492C7.71758 26.5301 8.01992 26.4059 8.32812 26.4059C8.63633 26.4059 8.93867 26.5301 9.15652 26.7492C9.37449 26.9672 9.5 27.2684 9.5 27.5778C9.5 27.886 9.37461 28.1883 9.15652 28.4063C8.93867 28.6242 8.6375 28.7496 8.32812 28.7496Z" fill="#444B54"/>
<path d="M11.668 28.7496C11.3598 28.7496 11.0574 28.6242 10.8395 28.4063C10.6215 28.1871 10.4961 27.886 10.4961 27.5778C10.4961 27.2684 10.6214 26.9672 10.8395 26.7481C11.0574 26.5301 11.3598 26.4059 11.668 26.4059C11.9773 26.4059 12.2785 26.5301 12.4964 26.7481C12.7155 26.9672 12.8398 27.2696 12.8398 27.5778C12.8398 27.886 12.7155 28.1871 12.4964 28.4063C12.2785 28.6242 11.9762 28.7496 11.668 28.7496Z" fill="#444B54"/>
<path d="M8.59375 30.799C8.59375 31.6959 9.32066 32.4227 10.2177 32.4227C11.1143 32.4227 11.8413 31.6959 11.8413 30.799H8.59375Z" fill="#EAFBEC"/>
<path d="M10.2177 33.5946C8.67613 33.5946 7.42188 32.3404 7.42188 30.799C7.42188 30.1517 7.94664 29.6271 8.59375 29.6271H11.8414C12.4885 29.6271 13.0132 30.1517 13.0132 30.799C13.0132 32.3406 11.7592 33.5946 10.2177 33.5946Z" fill="#444B54"/>
<path d="M8.37109 9.74768C8.06172 9.74768 7.76055 9.62229 7.54141 9.40432C7.32344 9.18635 7.19922 8.88401 7.19922 8.57581C7.19922 8.2676 7.32344 7.96526 7.54141 7.74729C7.76055 7.52932 8.06172 7.40393 8.37109 7.40393C8.6793 7.40393 8.98164 7.52932 9.19961 7.74729C9.41746 7.96526 9.54297 8.2676 9.54297 8.57581C9.54297 8.88401 9.41758 9.18635 9.19961 9.40432C8.98164 9.62229 8.6793 9.74768 8.37109 9.74768Z" fill="#444B54"/>
<path d="M11.7109 9.74768C11.4027 9.74768 11.1004 9.62229 10.8824 9.40432C10.6633 9.18635 10.5391 8.88401 10.5391 8.57581C10.5391 8.2676 10.6633 7.96526 10.8824 7.74729C11.1004 7.52932 11.4017 7.40393 11.7109 7.40393C12.0191 7.40393 12.3215 7.52932 12.5395 7.74729C12.7573 7.96526 12.8828 8.2676 12.8828 8.57581C12.8828 8.88401 12.7574 9.18635 12.5395 9.40432C12.3203 9.62229 12.0191 9.74768 11.7109 9.74768Z" fill="#444B54"/>
<path d="M11.8047 13.0201C11.8047 12.0716 11.0361 11.3031 10.0877 11.3031C9.13961 11.3031 8.37109 12.0716 8.37109 13.0201H11.8047Z" fill="#EAFBEC"/>
<path d="M11.8048 14.192H8.37109C7.72398 14.192 7.19922 13.6674 7.19922 13.0201C7.19922 11.4272 8.49508 10.1312 10.0877 10.1312C11.6807 10.1312 12.9766 11.4272 12.9766 13.0201C12.9767 13.6674 12.4519 14.192 11.8048 14.192Z" fill="#444B54"/>
<path d="M8.14844 49.2878C7.84012 49.2878 7.53777 49.1625 7.31992 48.9445C7.10195 48.7265 6.97656 48.4242 6.97656 48.116C6.97656 47.8066 7.10184 47.5054 7.31992 47.2875C7.53777 47.0683 7.84012 46.9441 8.14844 46.9441C8.45664 46.9441 8.75898 47.0683 8.97684 47.2875C9.1948 47.5054 9.32031 47.8066 9.32031 48.116C9.32031 48.4242 9.19492 48.7265 8.97684 48.9445C8.75898 49.1625 8.45664 49.2878 8.14844 49.2878Z" fill="#444B54"/>
<path d="M12.1914 49.2878C11.8831 49.2878 11.5807 49.1625 11.3629 48.9445C11.1449 48.7253 11.0195 48.4242 11.0195 48.116C11.0195 47.8078 11.1448 47.5054 11.3629 47.2863C11.5807 47.0683 11.8831 46.9441 12.1914 46.9441C12.4996 46.9441 12.802 47.0683 13.0198 47.2863C13.2378 47.5054 13.3633 47.8078 13.3633 48.116C13.3633 48.4242 13.2379 48.7253 13.0198 48.9445C12.802 49.1625 12.4996 49.2878 12.1914 49.2878Z" fill="#444B54"/>
<path d="M12.7578 50.771H7.67969V51.5972H12.7578V50.771Z" fill="#EAFBEC"/>
<path d="M12.7578 52.769H7.67969C7.03258 52.769 6.50781 52.2444 6.50781 51.5972V50.771C6.50781 50.1238 7.03258 49.5991 7.67969 49.5991H12.7578C13.4049 49.5991 13.9296 50.1238 13.9296 50.771V51.5972C13.9296 52.2444 13.405 52.769 12.7578 52.769Z" fill="#444B54"/>
<path d="M10.0875 17.1042C13.579 17.1042 16.4095 14.2737 16.4095 10.7822C16.4095 7.29074 13.579 4.46033 10.0875 4.46033C6.59604 4.46033 3.76562 7.29074 3.76562 10.7822C3.76562 14.2737 6.59604 17.1042 10.0875 17.1042Z" fill="#EAFBEC"/>
<path d="M10.0875 18.276C5.95539 18.276 2.59375 14.9143 2.59375 10.7822C2.59375 6.65021 5.95551 3.28845 10.0875 3.28845C14.2196 3.28845 17.5812 6.65021 17.5812 10.7822C17.5812 14.9143 14.2196 18.276 10.0875 18.276ZM10.0875 5.63232C7.24785 5.63232 4.9375 7.94255 4.9375 10.7824C4.9375 13.6222 7.24785 15.9324 10.0875 15.9324C12.9272 15.9324 15.2375 13.6222 15.2375 10.7824C15.2375 7.94255 12.9273 5.63232 10.0875 5.63232Z" fill="#444B54"/>
<path d="M10.0875 36.3219C13.579 36.3219 16.4095 33.4915 16.4095 30C16.4095 26.5085 13.579 23.6781 10.0875 23.6781C6.59604 23.6781 3.76562 26.5085 3.76562 30C3.76562 33.4915 6.59604 36.3219 10.0875 36.3219Z" fill="#EAFBEC"/>
<path d="M10.0875 37.4938C5.95539 37.4938 2.59375 34.132 2.59375 30C2.59375 25.868 5.95551 22.5062 10.0875 22.5062C14.2196 22.5062 17.5812 25.868 17.5812 30C17.5812 34.132 14.2196 37.4938 10.0875 37.4938ZM10.0875 24.85C7.24785 24.85 4.9375 27.1602 4.9375 30C4.9375 32.8398 7.24785 35.1501 10.0875 35.1501C12.9272 35.1501 15.2375 32.8398 15.2375 30C15.2375 27.1602 12.9273 24.85 10.0875 24.85Z" fill="#444B54"/>
<path d="M10.0875 55.5397C13.579 55.5397 16.4095 52.7093 16.4095 49.2178C16.4095 45.7263 13.579 42.8959 10.0875 42.8959C6.59604 42.8959 3.76562 45.7263 3.76562 49.2178C3.76562 52.7093 6.59604 55.5397 10.0875 55.5397Z" fill="#EAFBEC"/>
<path d="M10.0875 56.7115C5.95539 56.7115 2.59375 53.3497 2.59375 49.2177C2.59375 45.0856 5.95551 41.7239 10.0875 41.7239C14.2196 41.7239 17.5812 45.0856 17.5812 49.2177C17.5812 53.3497 14.2196 56.7115 10.0875 56.7115ZM10.0875 44.0677C7.24785 44.0677 4.9375 46.378 4.9375 49.2178C4.9375 52.0576 7.24785 54.3678 10.0875 54.3678C12.9272 54.3678 15.2375 52.0576 15.2375 49.2178C15.2375 46.378 12.9273 44.0677 10.0875 44.0677Z" fill="#444B54"/>
<path d="M56.2344 15.9385H22.8359C22.1888 15.9385 21.6641 15.4138 21.6641 14.7666V6.79785C21.6641 6.15063 22.1888 5.62598 22.8359 5.62598H56.2344C56.8815 5.62598 57.4062 6.15063 57.4062 6.79785V14.7666C57.4062 15.4138 56.8815 15.9385 56.2344 15.9385ZM24.0078 13.5947H55.0625V7.96973H24.0078V13.5947Z" fill="#444B54"/>
<path d="M56.2344 35.1562H22.8359C22.1888 35.1562 21.6641 34.6316 21.6641 33.9844V26.0156C21.6641 25.3684 22.1888 24.8438 22.8359 24.8438H56.2344C56.8815 24.8438 57.4062 25.3684 57.4062 26.0156V33.9844C57.4062 34.6316 56.8815 35.1562 56.2344 35.1562ZM24.0078 32.8125H55.0625V27.1875H24.0078V32.8125Z" fill="#444B54"/>
<path d="M56.2344 54.374H22.8359C22.1888 54.374 21.6641 53.8494 21.6641 53.2021V45.2334C21.6641 44.5862 22.1888 44.0615 22.8359 44.0615H56.2344C56.8815 44.0615 57.4062 44.5862 57.4062 45.2334V53.2021C57.4062 53.8494 56.8815 54.374 56.2344 54.374ZM24.0078 52.0303H55.0625V46.4053H24.0078V52.0303Z" fill="#444B54"/>
<path d="M33.9296 15.3577H22.8359C22.1888 15.3577 21.6641 14.833 21.6641 14.1858V6.79785C21.6641 6.15062 22.1888 5.62598 22.8359 5.62598H33.9296C34.5767 5.62598 35.1015 6.15062 35.1015 6.79785V14.1858C35.1015 14.833 34.5767 15.3577 33.9296 15.3577ZM24.0078 13.0139H32.7577V7.96973H24.0078V13.0139Z" fill="#444B54"/>
<path d="M49.0468 35.1562H22.8359C22.1888 35.1562 21.6641 34.6316 21.6641 33.9844V26.0156C21.6641 25.3684 22.1888 24.8438 22.8359 24.8438H49.0468C49.6939 24.8438 50.2187 25.3684 50.2187 26.0156V33.9844C50.2187 34.6316 49.6939 35.1562 49.0468 35.1562ZM24.0078 32.8125H47.8749V27.1875H24.0078V32.8125Z" fill="#444B54"/>
<path d="M30.5312 54.374H22.8359C22.1888 54.374 21.6641 53.8494 21.6641 53.2021V45.2334C21.6641 44.5862 22.1888 44.0615 22.8359 44.0615H30.5312C31.1783 44.0615 31.703 44.5862 31.703 45.2334V53.2021C31.703 53.8494 31.1783 54.374 30.5312 54.374ZM24.0078 52.0303H29.3593V46.4053H24.0078V52.0303Z" fill="#444B54"/>
<path d="M8.32812 28.7496C8.01992 28.7496 7.71758 28.6242 7.49961 28.4063C7.28164 28.1883 7.15625 27.886 7.15625 27.5778C7.15625 27.2684 7.28152 26.966 7.49961 26.7492C7.71758 26.5301 8.01992 26.4059 8.32812 26.4059C8.63633 26.4059 8.93867 26.5301 9.15652 26.7492C9.37449 26.9672 9.5 27.2684 9.5 27.5778C9.5 27.886 9.37461 28.1883 9.15652 28.4063C8.93867 28.6242 8.6375 28.7496 8.32812 28.7496Z" fill="#444B54"/>
<path d="M11.668 28.7496C11.3598 28.7496 11.0574 28.6242 10.8395 28.4063C10.6215 28.1871 10.4961 27.886 10.4961 27.5778C10.4961 27.2684 10.6214 26.9672 10.8395 26.7481C11.0574 26.5301 11.3598 26.4059 11.668 26.4059C11.9773 26.4059 12.2785 26.5301 12.4964 26.7481C12.7155 26.9672 12.8398 27.2696 12.8398 27.5778C12.8398 27.886 12.7155 28.1871 12.4964 28.4063C12.2785 28.6242 11.9762 28.7496 11.668 28.7496Z" fill="#444B54"/>
<path d="M8.59375 30.799C8.59375 31.6959 9.32066 32.4227 10.2177 32.4227C11.1143 32.4227 11.8413 31.6959 11.8413 30.799H8.59375Z" fill="#EAFBEC"/>
<path d="M10.2177 33.5946C8.67613 33.5946 7.42188 32.3404 7.42188 30.799C7.42188 30.1517 7.94664 29.6271 8.59375 29.6271H11.8414C12.4885 29.6271 13.0132 30.1517 13.0132 30.799C13.0132 32.3406 11.7592 33.5946 10.2177 33.5946Z" fill="#444B54"/>
<path d="M8.37109 9.74768C8.06172 9.74768 7.76055 9.62229 7.54141 9.40432C7.32344 9.18635 7.19922 8.88401 7.19922 8.57581C7.19922 8.2676 7.32344 7.96526 7.54141 7.74729C7.76055 7.52932 8.06172 7.40393 8.37109 7.40393C8.6793 7.40393 8.98164 7.52932 9.19961 7.74729C9.41746 7.96526 9.54297 8.2676 9.54297 8.57581C9.54297 8.88401 9.41758 9.18635 9.19961 9.40432C8.98164 9.62229 8.6793 9.74768 8.37109 9.74768Z" fill="#444B54"/>
<path d="M11.7109 9.74768C11.4027 9.74768 11.1004 9.62229 10.8824 9.40432C10.6633 9.18635 10.5391 8.88401 10.5391 8.57581C10.5391 8.2676 10.6633 7.96526 10.8824 7.74729C11.1004 7.52932 11.4017 7.40393 11.7109 7.40393C12.0191 7.40393 12.3215 7.52932 12.5395 7.74729C12.7573 7.96526 12.8828 8.2676 12.8828 8.57581C12.8828 8.88401 12.7574 9.18635 12.5395 9.40432C12.3203 9.62229 12.0191 9.74768 11.7109 9.74768Z" fill="#444B54"/>
<path d="M11.8047 13.0201C11.8047 12.0716 11.0361 11.3031 10.0877 11.3031C9.13961 11.3031 8.37109 12.0716 8.37109 13.0201H11.8047Z" fill="#EAFBEC"/>
<path d="M11.8048 14.192H8.37109C7.72398 14.192 7.19922 13.6674 7.19922 13.0201C7.19922 11.4272 8.49508 10.1312 10.0877 10.1312C11.6807 10.1312 12.9766 11.4272 12.9766 13.0201C12.9767 13.6674 12.4519 14.192 11.8048 14.192Z" fill="#444B54"/>
<path d="M8.14844 49.2878C7.84012 49.2878 7.53777 49.1625 7.31992 48.9445C7.10195 48.7265 6.97656 48.4242 6.97656 48.116C6.97656 47.8066 7.10184 47.5054 7.31992 47.2875C7.53777 47.0683 7.84012 46.9441 8.14844 46.9441C8.45664 46.9441 8.75898 47.0683 8.97684 47.2875C9.1948 47.5054 9.32031 47.8066 9.32031 48.116C9.32031 48.4242 9.19492 48.7265 8.97684 48.9445C8.75898 49.1625 8.45664 49.2878 8.14844 49.2878Z" fill="#444B54"/>
<path d="M12.1914 49.2878C11.8831 49.2878 11.5807 49.1625 11.3629 48.9445C11.1449 48.7253 11.0195 48.4242 11.0195 48.116C11.0195 47.8078 11.1448 47.5054 11.3629 47.2863C11.5807 47.0683 11.8831 46.9441 12.1914 46.9441C12.4996 46.9441 12.802 47.0683 13.0198 47.2863C13.2378 47.5054 13.3633 47.8078 13.3633 48.116C13.3633 48.4242 13.2379 48.7253 13.0198 48.9445C12.802 49.1625 12.4996 49.2878 12.1914 49.2878Z" fill="#444B54"/>
<path d="M12.7578 50.771H7.67969V51.5972H12.7578V50.771Z" fill="#EAFBEC"/>
<path d="M12.7578 52.769H7.67969C7.03258 52.769 6.50781 52.2444 6.50781 51.5972V50.771C6.50781 50.1238 7.03258 49.5991 7.67969 49.5991H12.7578C13.4049 49.5991 13.9296 50.1238 13.9296 50.771V51.5972C13.9296 52.2444 13.405 52.769 12.7578 52.769Z" fill="#444B54"/>
<path d="M56.2344 6.79785H22.8359V14.7666H56.2344V6.79785Z" fill="#D9DCE1"/>
<path d="M56.2344 15.9385H22.8359C22.1888 15.9385 21.6641 15.4138 21.6641 14.7666V6.79785C21.6641 6.15063 22.1888 5.62598 22.8359 5.62598H56.2344C56.8815 5.62598 57.4062 6.15063 57.4062 6.79785V14.7666C57.4062 15.4138 56.8815 15.9385 56.2344 15.9385ZM24.0078 13.5947H55.0625V7.96973H24.0078V13.5947Z" fill="#444B54"/>
<path d="M56.2344 26.0156H22.8359V33.9844H56.2344V26.0156Z" fill="#D9DCE1"/>
<path d="M56.2344 35.1562H22.8359C22.1888 35.1562 21.6641 34.6316 21.6641 33.9844V26.0156C21.6641 25.3684 22.1888 24.8438 22.8359 24.8438H56.2344C56.8815 24.8438 57.4062 25.3684 57.4062 26.0156V33.9844C57.4062 34.6316 56.8815 35.1562 56.2344 35.1562ZM24.0078 32.8125H55.0625V27.1875H24.0078V32.8125Z" fill="#444B54"/>
<path d="M56.2344 45.2334H22.8359V53.2021H56.2344V45.2334Z" fill="#D9DCE1"/>
<path d="M56.2344 54.374H22.8359C22.1888 54.374 21.6641 53.8494 21.6641 53.2021V45.2334C21.6641 44.5862 22.1888 44.0615 22.8359 44.0615H56.2344C56.8815 44.0615 57.4062 44.5862 57.4062 45.2334V53.2021C57.4062 53.8494 56.8815 54.374 56.2344 54.374ZM24.0078 52.0303H55.0625V46.4053H24.0078V52.0303Z" fill="#444B54"/>
<path d="M33.9296 6.79785H22.8359V14.1858H33.9296V6.79785Z" fill="#3EB96F"/>
<path d="M33.9296 15.3577H22.8359C22.1888 15.3577 21.6641 14.833 21.6641 14.1858V6.79785C21.6641 6.15062 22.1888 5.62598 22.8359 5.62598H33.9296C34.5767 5.62598 35.1015 6.15062 35.1015 6.79785V14.1858C35.1015 14.833 34.5767 15.3577 33.9296 15.3577ZM24.0078 13.0139H32.7577V7.96973H24.0078V13.0139Z" fill="#444B54"/>
<path d="M49.0468 26.0156H22.8359V33.9844H49.0468V26.0156Z" fill="#3EB96F"/>
<path d="M49.0468 35.1562H22.8359C22.1888 35.1562 21.6641 34.6316 21.6641 33.9844V26.0156C21.6641 25.3684 22.1888 24.8438 22.8359 24.8438H49.0468C49.6939 24.8438 50.2187 25.3684 50.2187 26.0156V33.9844C50.2187 34.6316 49.6939 35.1562 49.0468 35.1562ZM24.0078 32.8125H47.8749V27.1875H24.0078V32.8125Z" fill="#444B54"/>
<path d="M30.5312 45.2334H22.8359V53.2021H30.5312V45.2334Z" fill="#3EB96F"/>
<path d="M30.5312 54.374H22.8359C22.1888 54.374 21.6641 53.8494 21.6641 53.2021V45.2334C21.6641 44.5862 22.1888 44.0615 22.8359 44.0615H30.5312C31.1783 44.0615 31.703 44.5862 31.703 45.2334V53.2021C31.703 53.8494 31.1783 54.374 30.5312 54.374ZM24.0078 52.0303H29.3593V46.4053H24.0078V52.0303Z" fill="#444B54"/>
</svg>
