<svg width="36" height="36" viewBox="0 0 36 36" fill="none" xmlns="http://www.w3.org/2000/svg">
<path d="M18.0004 10.4344C20.7285 10.4344 22.9223 8.21255 22.9223 5.48442C22.9223 2.7563 20.7285 0.534424 18.0004 0.534424C15.2723 0.534424 13.0504 2.72817 13.0504 5.48442C13.0504 8.21255 15.2723 10.4344 18.0004 10.4344ZM22.7816 11.6157C25.0316 11.7 25.9879 13.5 25.9879 13.5L33.2723 23.5126C33.5816 23.9625 33.7504 24.4969 33.7504 25.0875C33.7504 26.6344 32.4848 27.9 30.9379 27.9C30.5723 27.9 30.2348 27.8157 29.8973 27.7032L25.5098 26.4657V30.8532H10.266V26.4657L5.87852 27.7032C5.56914 27.8157 5.23164 27.9 4.83789 27.9C3.29102 27.9 2.02539 26.6344 2.02539 25.0875C2.02539 24.4969 2.19414 23.9625 2.50352 23.5126L9.78789 13.5C9.78789 13.5 10.7441 11.7 12.9941 11.6157H22.7816ZM17.8879 27.7875L23.5973 25.9032L23.4566 25.875C19.5191 24.7219 21.0379 19.5188 24.9754 20.6719L25.5098 20.8688V14.9907L17.8879 17.4938L10.2379 14.9907V20.8688L10.7723 20.6719C14.7098 19.5188 16.2285 24.6938 12.291 25.875L12.1504 25.9032L17.8879 27.7875ZM33.5816 34.7626C33.9754 34.7626 34.2848 34.3688 34.2848 33.8344C34.2848 33.3 33.9754 32.9063 33.5816 32.9063H2.75664C2.36289 32.9063 2.05352 33.3282 2.05352 33.8344C2.05352 34.3407 2.36289 34.7626 2.75664 34.7626H33.5816Z" fill="#66B5B6"/>
</svg>
