<svg width="22" height="24" viewBox="0 0 22 24" fill="none" xmlns="http://www.w3.org/2000/svg">
<g id="Group">
<g id="Group_2">
<path id="Vector" d="M21.1984 19.6V0.4C21.1984 0.16 21.0384 0 20.7984 0H2.79844C2.55844 0 2.39844 0.16 2.39844 0.4V6H3.19844V0.8H20.3984V19.2H16.7984C16.5584 19.2 16.3984 19.36 16.3984 19.6V23.2H3.19844V17.2H2.39844V23.6C2.39844 23.84 2.55844 24 2.79844 24H16.7984C16.9184 24 16.9984 23.96 17.0784 23.88L21.0784 19.88C21.1184 19.84 21.1184 19.8 21.1584 19.76V19.72C21.1984 19.68 21.1984 19.64 21.1984 19.6ZM17.1984 20H19.8384L18.5184 21.32L17.1984 22.64V20Z" fill="black"/>
<path id="Vector_2" d="M5.2 15.2004H7.6H9.2V14.4004H8V6.80039C8 6.56039 7.84 6.40039 7.6 6.40039H5.2C4.96 6.40039 4.8 6.56039 4.8 6.80039V9.20039H2.8C2.56 9.20039 2.4 9.36039 2.4 9.60039V11.2004H0.4C0.16 11.2004 0 11.3604 0 11.6004V14.8004C0 15.0404 0.16 15.2004 0.4 15.2004H2.8H5.2ZM5.6 7.20039H7.2V14.4004H5.6V9.60039V7.20039ZM3.2 10.0004H4.8V14.4004H3.2V11.6004V10.0004ZM0.8 12.0004H2.4V14.4004H0.8V12.0004Z" fill="black"/>
<path id="Vector_3" d="M18.8016 9.60039V2.80039C18.8016 2.56039 18.6416 2.40039 18.4016 2.40039H10.0016C9.76156 2.40039 9.60156 2.56039 9.60156 2.80039V9.60039C9.60156 9.84039 9.76156 10.0004 10.0016 10.0004H18.4016C18.6416 10.0004 18.8016 9.84039 18.8016 9.60039ZM18.0016 4.80039H13.2016V3.20039H18.0016V4.80039ZM12.4016 3.20039V4.80039H10.4016C10.4016 4.16039 10.4016 3.20039 10.4016 3.20039H12.4016ZM10.4016 5.60039H12.4016V9.20039H10.4016C10.4016 9.20039 10.4016 7.32039 10.4016 5.60039ZM13.2016 9.20039V5.60039H18.0016V9.20039H13.2016Z" fill="black"/>
<path id="Vector_4" d="M18.4 11.2002H10V12.0002H18.4V11.2002Z" fill="black"/>
<path id="Vector_5" d="M18.4 13.2002H10V14.0002H18.4V13.2002Z" fill="black"/>
<path id="Vector_6" d="M18.4 15.2002H10V16.0002H18.4V15.2002Z" fill="black"/>
<path id="Vector_7" d="M6.79844 2.40039H4.39844V3.20039H6.79844V2.40039Z" fill="black"/>
<path id="Vector_8" d="M7.99844 4.40039H4.39844V5.20039H7.99844V4.40039Z" fill="black"/>
<path id="Vector_9" d="M7.19844 17.2002H4.39844V18.0002H7.19844V17.2002Z" fill="black"/>
<path id="Vector_10" d="M11.1984 17.2002H8.39844V18.0002H11.1984V17.2002Z" fill="black"/>
<path id="Vector_11" d="M15.1984 17.2002H12.3984V18.0002H15.1984V17.2002Z" fill="black"/>
<path id="Vector_12" d="M7.19844 19.2002H4.39844V20.0002H7.19844V19.2002Z" fill="black"/>
<path id="Vector_13" d="M11.1984 19.2002H8.39844V20.0002H11.1984V19.2002Z" fill="black"/>
<path id="Vector_14" d="M15.1984 19.2002H12.3984V20.0002H15.1984V19.2002Z" fill="black"/>
<path id="Vector_15" d="M7.19844 21.2002H4.39844V22.0002H7.19844V21.2002Z" fill="black"/>
<path id="Vector_16" d="M11.1984 21.2002H8.39844V22.0002H11.1984V21.2002Z" fill="black"/>
<path id="Vector_17" d="M15.1984 21.2002H12.3984V22.0002H15.1984V21.2002Z" fill="black"/>
</g>
</g>
</svg>
