<svg width="22" height="24" viewBox="0 0 22 24" fill="none" xmlns="http://www.w3.org/2000/svg">
<path d="M21.2004 19.6V0.4C21.2004 0.16 21.0404 0 20.8004 0H2.80039C2.56039 0 2.40039 0.16 2.40039 0.4V6H3.20039V0.8H20.4004V19.2H16.8004C16.5604 19.2 16.4004 19.36 16.4004 19.6V23.2H3.20039V17.2H2.40039V23.6C2.40039 23.84 2.56039 24 2.80039 24H16.8004C16.9204 24 17.0004 23.96 17.0804 23.88L21.0804 19.88C21.1204 19.84 21.1204 19.8 21.1604 19.76V19.72C21.2004 19.68 21.2004 19.64 21.2004 19.6ZM17.2004 20H19.8404L18.5204 21.32L17.2004 22.64V20Z" fill="black"/>
<path d="M5.2 15.2H7.6H9.2V14.4H8V6.80002C8 6.56002 7.84 6.40002 7.6 6.40002H5.2C4.96 6.40002 4.8 6.56002 4.8 6.80002V9.20002H2.8C2.56 9.20002 2.4 9.36002 2.4 9.60002V11.2H0.4C0.16 11.2 0 11.36 0 11.6V14.8C0 15.04 0.16 15.2 0.4 15.2H2.8H5.2ZM5.6 7.20002H7.2V14.4H5.6V9.60002V7.20002ZM3.2 10H4.8V14.4H3.2V11.6V10ZM0.8 12H2.4V14.4H0.8V12Z" fill="black"/>
<path d="M18.7996 9.5999V2.7999C18.7996 2.5599 18.6396 2.3999 18.3996 2.3999H9.99961C9.75961 2.3999 9.59961 2.5599 9.59961 2.7999V9.5999C9.59961 9.8399 9.75961 9.9999 9.99961 9.9999H18.3996C18.6396 9.9999 18.7996 9.8399 18.7996 9.5999ZM17.9996 4.7999H13.1996V3.1999H17.9996V4.7999ZM12.3996 3.1999V4.7999H10.3996C10.3996 4.1599 10.3996 3.1999 10.3996 3.1999H12.3996ZM10.3996 5.5999H12.3996V9.1999H10.3996C10.3996 9.1999 10.3996 7.3199 10.3996 5.5999ZM13.1996 9.1999V5.5999H17.9996V9.1999H13.1996Z" fill="black"/>
<path d="M18.4 11.2H10V12H18.4V11.2Z" fill="black"/>
<path d="M18.4 13.2H10V14H18.4V13.2Z" fill="black"/>
<path d="M18.4 15.2H10V16H18.4V15.2Z" fill="black"/>
<path d="M6.80039 2.3999H4.40039V3.1999H6.80039V2.3999Z" fill="black"/>
<path d="M8.00039 4.3999H4.40039V5.1999H8.00039V4.3999Z" fill="black"/>
<path d="M7.20039 17.2002H4.40039V18.0002H7.20039V17.2002Z" fill="black"/>
<path d="M11.2004 17.2002H8.40039V18.0002H11.2004V17.2002Z" fill="black"/>
<path d="M15.2004 17.2002H12.4004V18.0002H15.2004V17.2002Z" fill="black"/>
<path d="M7.20039 19.2002H4.40039V20.0002H7.20039V19.2002Z" fill="black"/>
<path d="M11.2004 19.2002H8.40039V20.0002H11.2004V19.2002Z" fill="black"/>
<path d="M15.2004 19.2002H12.4004V20.0002H15.2004V19.2002Z" fill="black"/>
<path d="M7.20039 21.2002H4.40039V22.0002H7.20039V21.2002Z" fill="black"/>
<path d="M11.2004 21.2002H8.40039V22.0002H11.2004V21.2002Z" fill="black"/>
<path d="M15.2004 21.2002H12.4004V22.0002H15.2004V21.2002Z" fill="black"/>
</svg>
