<svg width="25" height="25" viewBox="0 0 25 25" fill="none" xmlns="http://www.w3.org/2000/svg">
<g clip-path="url(#clip0_1_3476)">
<path d="M24.5832 8.33325H12.0832C11.8332 8.33325 11.6665 8.49992 11.6665 8.74992V24.5833C11.6665 24.8333 11.8332 24.9999 12.0832 24.9999H24.5832C24.8332 24.9999 24.9998 24.8333 24.9998 24.5833V8.74992C24.9998 8.49992 24.8332 8.33325 24.5832 8.33325ZM24.1665 9.16659V11.6666H12.4998C12.4998 11.4166 12.4998 10.9999 12.4998 10.8333H17.4998V9.99992H12.4998C12.4998 9.91659 12.4998 9.16659 12.4998 9.16659H24.1665ZM12.4998 24.1666C12.4998 24.1666 12.4998 16.5416 12.4998 12.4999H24.1665V24.1666H12.4998Z" fill="#5380A0"/>
<path d="M15.8335 13.3333H14.5835V14.1666H15.8335V13.3333Z" fill="#5380A0"/>
<path d="M17.9165 13.3333H16.6665V14.1666H17.9165V13.3333Z" fill="#5380A0"/>
<path d="M20 13.3333H18.75V14.1666H20V13.3333Z" fill="#5380A0"/>
<path d="M22.0835 13.3333H20.8335V14.1666H22.0835V13.3333Z" fill="#5380A0"/>
<path d="M15.4167 15.4167H13.75V16.2501H15.4167V15.4167Z" fill="#5380A0"/>
<path d="M17.9167 15.4167H16.25V16.2501H17.9167V15.4167Z" fill="#5380A0"/>
<path d="M20.4167 15.4167H18.75V16.2501H20.4167V15.4167Z" fill="#5380A0"/>
<path d="M22.9167 15.4167H21.25V16.2501H22.9167V15.4167Z" fill="#5380A0"/>
<path d="M15.4167 17.0833H13.75V17.9166H15.4167V17.0833Z" fill="#5380A0"/>
<path d="M17.9167 17.0833H16.25V17.9166H17.9167V17.0833Z" fill="#5380A0"/>
<path d="M20.4167 17.0833H18.75V17.9166H20.4167V17.0833Z" fill="#5380A0"/>
<path d="M22.9167 17.0833H21.25V17.9166H22.9167V17.0833Z" fill="#5380A0"/>
<path d="M15.4167 18.75H13.75V19.5833H15.4167V18.75Z" fill="#5380A0"/>
<path d="M17.9167 18.75H16.25V19.5833H17.9167V18.75Z" fill="#5380A0"/>
<path d="M20.4167 18.75H18.75V19.5833H20.4167V18.75Z" fill="#5380A0"/>
<path d="M22.9167 18.75H21.25V19.5833H22.9167V18.75Z" fill="#5380A0"/>
<path d="M15.4167 20.4167H13.75V21.2501H15.4167V20.4167Z" fill="#5380A0"/>
<path d="M17.9167 20.4167H16.25V21.2501H17.9167V20.4167Z" fill="#5380A0"/>
<path d="M20.4167 20.4167H18.75V21.2501H20.4167V20.4167Z" fill="#5380A0"/>
<path d="M22.9167 20.4167H21.25V21.2501H22.9167V20.4167Z" fill="#5380A0"/>
<path d="M15.4167 22.0833H13.75V22.9166H15.4167V22.0833Z" fill="#5380A0"/>
<path d="M17.9167 22.0833H16.25V22.9166H17.9167V22.0833Z" fill="#5380A0"/>
<path d="M20.4167 22.0833H18.75V22.9166H20.4167V22.0833Z" fill="#5380A0"/>
<path d="M22.9167 22.0833H21.25V22.9166H22.9167V22.0833Z" fill="#5380A0"/>
<path d="M0.833333 5.83333H5.41667C5.66667 5.83333 5.83333 5.66667 5.83333 5.41667V0.833333H20V6.66667H20.8333V0.416667C20.8333 0.166667 20.6667 0 20.4167 0H5.41667C5.375 0 5.33333 0 5.29167 0.0416667H5.25C5.20833 0.0833333 5.16667 0.0833333 5.125 0.125L0.125 5.125C0.0833333 5.16667 0.0833333 5.20833 0.0416667 5.25V5.29167C0.0416667 5.33333 0 5.375 0 5.41667V10H0.833333C0.833333 10 0.833333 6.29167 0.833333 5.83333ZM5 5H1.41667L3.20833 3.20833L5 1.41667V5Z" fill="#5380A0"/>
<path d="M10.4167 17.9167H5.83333V16.2501V14.1667V12.0834C5.83333 11.8334 5.66667 11.6667 5.41667 11.6667H0.416667C0.166667 11.6667 0 11.8334 0 12.0834V14.1667V16.2501V18.3334V20.4167V22.5001V24.5834C0 24.8334 0.166667 25.0001 0.416667 25.0001H5.41667H10.4167C10.6667 25.0001 10.8333 24.8334 10.8333 24.5834V22.5001V20.4167V18.3334C10.8333 18.0834 10.6667 17.9167 10.4167 17.9167ZM0.833333 18.7501H5V20.0001H0.833333V18.7501ZM5 17.9167H0.833333V16.6667H5V17.9167ZM5 15.8334H0.833333V14.5834H5V15.8334ZM0.833333 20.8334H5V22.0834H0.833333V20.8334ZM5.83333 20.8334H10V22.0834H5.83333V20.8334ZM10 20.0001H5.83333V18.7501H10V20.0001ZM0.833333 12.5001H5V13.7501H0.833333V12.5001ZM0.833333 22.9167H5V24.1667H0.833333V22.9167ZM10 24.1667H5.83333V22.9167H10V24.1667Z" fill="#5380A0"/>
<path d="M18.7502 2.08325H15.8335V2.91659H18.7502V2.08325Z" fill="#5380A0"/>
<path d="M18.75 4.16675H11.25V5.00008H18.75V4.16675Z" fill="#5380A0"/>
<path d="M19.5835 10H18.3335V10.8333H19.5835V10Z" fill="#5380A0"/>
</g>
<defs>
<clipPath id="clip0_1_3476">
<rect width="25" height="25" fill="white"/>
</clipPath>
</defs>
</svg>
