<svg width="24" height="24" viewBox="0 0 24 24" fill="none" xmlns="http://www.w3.org/2000/svg">
<g id="Interface / Settings">
<path id="Vector" d="M12 16C14.2091 16 16 14.2091 16 12C16 9.79086 14.2091 8 12 8C9.79086 8 8 9.79086 8 12C8 14.2091 9.79086 16 12 16Z" stroke="black" stroke-width="2" stroke-linecap="round" stroke-linejoin="round"/>
<path id="Vector_2" d="M19.1656 7.94004L19.0999 7.82619C18.9185 7.51217 18.8259 7.15475 18.832 6.79216L18.8619 5.01333C18.868 4.64981 18.6763 4.3116 18.3613 4.13007L15.6247 2.55307C15.3104 2.372 14.9228 2.37524 14.6117 2.56155L13.0926 3.47113C12.7821 3.65704 12.427 3.75522 12.0651 3.75522H11.9334C11.5708 3.75522 11.2149 3.65661 10.904 3.46994L9.37794 2.55377C9.0657 2.36632 8.67624 2.36344 8.36125 2.54625L5.63327 4.12954C5.31978 4.31149 5.12928 4.64883 5.13538 5.01125L5.16535 6.79216C5.17145 7.15475 5.07885 7.51217 4.89746 7.82619L4.83257 7.93852C4.65108 8.25271 4.38754 8.5116 4.07017 8.68748L2.51528 9.54914C2.19659 9.72576 1.99917 10.0617 2 10.4261L2.00716 13.5779C2.00798 13.9401 2.20454 14.2735 2.52101 14.4495L4.06844 15.3104C4.38689 15.4875 4.65088 15.7483 4.83191 16.0646L4.90143 16.186C5.08027 16.4985 5.17146 16.8534 5.16538 17.2133L5.13545 18.9865C5.12931 19.35 5.32099 19.6882 5.63602 19.8698L8.37266 21.4468C8.68688 21.6278 9.07451 21.6246 9.38566 21.4383L10.9047 20.5287C11.2152 20.3428 11.5703 20.2446 11.9322 20.2446H12.0639C12.4265 20.2446 12.7824 20.3432 13.0933 20.5299L14.6194 21.4461C14.9316 21.6335 15.3211 21.6364 15.6361 21.4536L18.3641 19.8703C18.6775 19.6884 18.868 19.351 18.8619 18.9886L18.832 17.2077C18.8259 16.8451 18.9185 16.4877 19.0999 16.1737L19.1648 16.0613C19.3462 15.7471 19.6098 15.4882 19.9272 15.3124L21.482 14.4507C21.8007 14.2741 21.9981 13.9381 21.9973 13.5738L21.9902 10.4219C21.9893 10.0598 21.7928 9.72638 21.4763 9.55032L19.9252 8.68741C19.6091 8.51156 19.3466 8.25327 19.1656 7.94004Z" stroke="black" stroke-width="2" stroke-linecap="round" stroke-linejoin="round"/>
</g>
</svg>
