<svg width="36" height="36" viewBox="0 0 36 36" fill="none" xmlns="http://www.w3.org/2000/svg">
<g clip-path="url(#clip0_1_7288)">
<path d="M27.644 19.0504C27.4864 18.3934 27.0855 16.9753 26.2641 15.5137C25.7092 14.5307 24.9572 13.5204 23.9272 12.7384C22.9006 11.9569 21.5804 11.4216 20.0076 11.4222H20.0018H19.9937H19.9908C18.4192 11.4217 17.0989 11.9569 16.0719 12.7384C14.5286 13.9143 13.6058 15.5879 13.041 16.9493V16.9499C12.672 17.8455 12.4605 18.6148 12.3551 19.0504H4.6875V22.6872L6.32691 28.9969H8.72639V36.0001H9.58547H31.2733V28.9969H33.6721L35.3121 22.6872V19.0504H27.644ZM14.9573 16.0954C15.4514 15.2363 16.1014 14.3974 16.9263 13.7851C17.7535 13.1722 18.7465 12.7736 19.9995 12.7719C21.2729 12.7736 22.2773 13.1843 23.1127 13.8146C24.3617 14.7565 25.2011 16.2245 25.7103 17.4636C25.9652 18.0829 26.1401 18.643 26.2496 19.0445C26.2896 19.1916 26.3208 19.3178 26.344 19.4181H13.6545C13.7877 18.8534 14.1735 17.4538 14.9573 16.0954ZM29.9235 34.6503H10.0762V26.1758H29.9236V34.6503H29.9235ZM32.6282 27.6483H30.9049V25.1939H9.0942V27.6483H7.3714L6.1815 23.0684H33.8182L32.6282 27.6483ZM33.9624 22.0865H6.03729V20.4001H33.9625L33.9624 22.0865Z" fill="#8B8BDC"/>
<path d="M19.9993 10.5016C22.8993 10.5016 25.2496 8.15077 25.2496 5.25136C25.2496 2.35027 22.8994 0.000632813 19.9993 0C17.0988 0.0005625 14.748 2.3502 14.748 5.25136C14.748 8.15084 17.0988 10.5016 19.9993 10.5016ZM17.1539 2.40588C17.8837 1.67709 18.8859 1.22695 19.9993 1.22695C21.1122 1.22695 22.1144 1.67709 22.8443 2.40588C23.5731 3.13516 24.0226 4.13852 24.0226 5.25136C24.0226 6.36363 23.5731 7.36692 22.8443 8.09571C22.1145 8.82457 21.1122 9.27408 19.9993 9.27408C18.886 9.27408 17.8838 8.82457 17.1539 8.09571C16.4245 7.36699 15.9756 6.36363 15.9756 5.25136C15.9755 4.13852 16.4245 3.13523 17.1539 2.40588Z" fill="#8B8BDC"/>
</g>
<defs>
<clipPath id="clip0_1_7288">
<rect width="34.6988" height="36" fill="white" transform="translate(0.445312)"/>
</clipPath>
</defs>
</svg>
