<svg width="24" height="24" viewBox="0 0 24 24" fill="none" xmlns="http://www.w3.org/2000/svg">
<g id="interview-svgrepo-com 2" clip-path="url(#clip0_589_2718)">
<g id="Group">
<g id="Group_2">
<path id="Vector" d="M8.40156 10.4004H7.60156V11.2004H8.40156V10.4004Z" fill="black"/>
<path id="Vector_2" d="M8.40156 12H7.60156V12.8H8.40156V12Z" fill="black"/>
<path id="Vector_3" d="M7.60156 5.2H8.40156C9.52156 5.2 10.4016 4.32 10.4016 3.2V2C10.4016 0.88 9.52156 0 8.40156 0H7.60156C6.48156 0 5.60156 0.88 5.60156 2V3.2C5.60156 4.32 6.48156 5.2 7.60156 5.2ZM6.40156 2C6.40156 1.32 6.92156 0.8 7.60156 0.8H8.40156C9.08156 0.8 9.60156 1.32 9.60156 2V3.2C9.60156 3.88 9.08156 4.4 8.40156 4.4H7.60156C6.92156 4.4 6.40156 3.88 6.40156 3.2V2Z" fill="black"/>
<path id="Vector_4" d="M23.6 13.5996H12.8V8.39961C12.8 6.83961 11.56 5.59961 10 5.59961H6C4.44 5.59961 3.2 6.83961 3.2 8.39961V13.5996H0.4C0.16 13.5996 0 13.7596 0 13.9996V16.3996C0 16.6396 0.16 16.7996 0.4 16.7996H1.6V23.9996H2.4V16.7996H20V15.9996H2H0.8V14.3996H23.2V15.9996H22C21.76 15.9996 21.6 16.1596 21.6 16.3996V23.9996H22.4V16.7996H23.6C23.84 16.7996 24 16.6396 24 16.3996V13.9996C24 13.7596 23.84 13.5996 23.6 13.5996ZM8.68 6.39961L8.04 8.07961L7.4 6.39961H8.68ZM4 8.39961C4 7.27961 4.88 6.39961 6 6.39961H6.52L7.64 9.35961C7.68 9.47961 7.84 9.59961 8 9.59961C8.16 9.59961 8.32 9.47961 8.44 9.35961L9.56 6.39961H10C11.12 6.39961 12 7.27961 12 8.39961V13.5996H10.8V9.59961H10V13.5996H6V9.59961H5.2V13.5996H4V8.39961Z" fill="black"/>
<path id="Vector_5" d="M23.6016 1.2002H14.0016C13.7616 1.2002 13.6016 1.3602 13.6016 1.6002V7.2002C13.6016 7.4402 13.7616 7.6002 14.0016 7.6002H16.0016V9.2002C16.0016 9.3602 16.0816 9.5202 16.2416 9.5602C16.2816 9.6002 16.3616 9.6002 16.4016 9.6002C16.5216 9.6002 16.6016 9.5602 16.6816 9.4802L18.5616 7.6002H23.6016C23.8416 7.6002 24.0016 7.4402 24.0016 7.2002V1.6002C24.0016 1.3602 23.8416 1.2002 23.6016 1.2002ZM23.2016 6.8002H18.4016C18.2816 6.8002 18.2016 6.8402 18.1216 6.9202L16.8016 8.2402V7.2002C16.8016 6.9602 16.6416 6.8002 16.4016 6.8002H14.4016V2.0002H23.2016V6.8002Z" fill="black"/>
<path id="Vector_6" d="M18.0016 3.2002H15.6016V4.0002H18.0016V3.2002Z" fill="black"/>
<path id="Vector_7" d="M21.2008 3.2002H18.8008V4.0002H21.2008V3.2002Z" fill="black"/>
<path id="Vector_8" d="M22.0016 4.7998H15.6016V5.5998H22.0016V4.7998Z" fill="black"/>
<path id="Vector_9" d="M14.0016 18.7998H10.0016C9.76156 18.7998 9.60156 18.9598 9.60156 19.1998V21.5998C9.60156 21.8398 9.76156 21.9998 10.0016 21.9998H14.0016C14.2416 21.9998 14.4016 21.8398 14.4016 21.5998V19.1998C14.4016 18.9598 14.2416 18.7998 14.0016 18.7998ZM13.6016 21.1998H10.4016V19.5998H13.6016V21.1998Z" fill="black"/>
<path id="Vector_10" d="M16.8 19.2002H16V20.0002H16.8V19.2002Z" fill="black"/>
<path id="Vector_11" d="M18.4016 19.2002H17.6016V20.0002H18.4016V19.2002Z" fill="black"/>
<path id="Vector_12" d="M19.9992 19.2002H19.1992V20.0002H19.9992V19.2002Z" fill="black"/>
<path id="Vector_13" d="M16.8 20.7998H16V21.5998H16.8V20.7998Z" fill="black"/>
<path id="Vector_14" d="M18.4016 20.7998H17.6016V21.5998H18.4016V20.7998Z" fill="black"/>
<path id="Vector_15" d="M19.9992 20.7998H19.1992V21.5998H19.9992V20.7998Z" fill="black"/>
<path id="Vector_16" d="M4.8 19.2002H4V20.0002H4.8V19.2002Z" fill="black"/>
<path id="Vector_17" d="M6.40156 19.2002H5.60156V20.0002H6.40156V19.2002Z" fill="black"/>
<path id="Vector_18" d="M7.99922 19.2002H7.19922V20.0002H7.99922V19.2002Z" fill="black"/>
<path id="Vector_19" d="M4.8 20.7998H4V21.5998H4.8V20.7998Z" fill="black"/>
<path id="Vector_20" d="M6.40156 20.7998H5.60156V21.5998H6.40156V20.7998Z" fill="black"/>
<path id="Vector_21" d="M7.99922 20.7998H7.19922V21.5998H7.99922V20.7998Z" fill="black"/>
</g>
</g>
</g>
<defs>
<clipPath id="clip0_589_2718">
<rect width="24" height="24" fill="white"/>
</clipPath>
</defs>
</svg>
