<svg width="36" height="36" viewBox="0 0 36 36" fill="none" xmlns="http://www.w3.org/2000/svg">
<path d="M19.5 7.60633C24.5884 8.33418 28.5 12.7103 28.5 18C28.5 23.799 23.799 28.5 18 28.5C12.201 28.5 7.5 23.799 7.5 18C7.5 14.9424 8.80692 12.19 10.8926 10.2711L8.76986 8.14831C6.14192 10.6115 4.5 14.114 4.5 18C4.5 25.4558 10.5442 31.5 18 31.5C25.4558 31.5 31.5 25.4558 31.5 18C31.5 10.5442 25.4558 4.5 18 4.5C17.493 4.5 16.9925 4.52795 16.5 4.58239V13.6283H19.5V7.60633Z" fill="#415667"/>
<path d="M11.5607 13.0606C10.9749 13.6464 10.9749 14.5962 11.5607 15.1819L15.8033 19.4246C16.3891 20.0104 17.3388 20.0104 17.9246 19.4246C18.5104 18.8388 18.5104 17.889 17.9246 17.3033L13.682 13.0606C13.0962 12.4748 12.1464 12.4748 11.5607 13.0606Z" fill="#415667"/>
</svg>
