<svg width="32" height="32" viewBox="0 0 32 32" fill="none" xmlns="http://www.w3.org/2000/svg">
<mask id="mask0_104_4766" style="mask-type:alpha" maskUnits="userSpaceOnUse" x="0" y="0" width="32" height="32">
<rect width="32" height="32" fill="#D9D9D9"/>
</mask>
<g mask="url(#mask0_104_4766)">
<path d="M12 3.99967V1.33301H20V3.99967H12ZM14.6667 18.6663H17.3333V10.6663H14.6667V18.6663ZM16 29.333C14.3556 29.333 12.8056 29.0163 11.35 28.383C9.89444 27.7497 8.62222 26.8886 7.53333 25.7997C6.44444 24.7108 5.58333 23.4386 4.95 21.983C4.31667 20.5275 4 18.9775 4 17.333C4 15.6886 4.31667 14.1386 4.95 12.683C5.58333 11.2275 6.44444 9.95523 7.53333 8.86634C8.62222 7.77745 9.89444 6.91634 11.35 6.28301C12.8056 5.64967 14.3556 5.33301 16 5.33301C17.3778 5.33301 18.7 5.55523 19.9667 5.99967C21.2333 6.44412 22.4222 7.08856 23.5333 7.93301L25.4 6.06634L27.2667 7.93301L25.4 9.79967C26.2444 10.9108 26.8889 12.0997 27.3333 13.3663C27.7778 14.633 28 15.9552 28 17.333C28 18.9775 27.6833 20.5275 27.05 21.983C26.4167 23.4386 25.5556 24.7108 24.4667 25.7997C23.3778 26.8886 22.1056 27.7497 20.65 28.383C19.1944 29.0163 17.6444 29.333 16 29.333ZM16 26.6663C18.5778 26.6663 20.7778 25.7552 22.6 23.933C24.4222 22.1108 25.3333 19.9108 25.3333 17.333C25.3333 14.7552 24.4222 12.5552 22.6 10.733C20.7778 8.91079 18.5778 7.99967 16 7.99967C13.4222 7.99967 11.2222 8.91079 9.4 10.733C7.57778 12.5552 6.66667 14.7552 6.66667 17.333C6.66667 19.9108 7.57778 22.1108 9.4 23.933C11.2222 25.7552 13.4222 26.6663 16 26.6663Z" fill="#F1F0F0"/>
</g>
</svg>
