<svg width="60" height="60" viewBox="0 0 60 60" fill="none" xmlns="http://www.w3.org/2000/svg">
<path d="M30 34.375C28.975 34.375 28.125 33.525 28.125 32.5V20C28.125 18.975 28.975 18.125 30 18.125C31.025 18.125 31.875 18.975 31.875 20V32.5C31.875 33.525 31.025 34.375 30 34.375Z" fill="#F3802D"/>
<path d="M37.2265 8.625H22.7766C21.7766 8.625 20.9766 7.825 20.9766 6.825C20.9766 5.825 21.7766 5 22.7766 5H37.2265C38.2265 5 39.0265 5.8 39.0265 6.8C39.0265 7.8 38.2265 8.625 37.2265 8.625Z" fill="#F3802D"/>
<path opacity="0.4" d="M37.4993 49.9248V42.5748C37.4993 39.3998 39.3993 37.4998 42.5743 37.4998H49.9243C50.3993 37.4998 50.8243 37.5498 51.2493 37.6498C51.5243 36.2498 51.6743 34.7998 51.6743 33.3248C51.6743 21.3748 41.9493 11.6498 29.9993 11.6498C18.0492 11.6498 8.32422 21.3748 8.32422 33.3248C8.32422 45.2748 18.0492 54.9998 29.9993 54.9998C33.0243 54.9998 35.8993 54.3748 38.5243 53.2498C37.8743 52.3998 37.4993 51.2998 37.4993 49.9248Z" fill="#F3802D"/>
<path d="M49.925 37.5H42.575C39.4 37.5 37.5 39.4 37.5 42.575V49.925C37.5 53.1 39.4 55 42.575 55H49.925C53.1 55 55 53.1 55 49.925V42.575C55 39.4 53.1 37.5 49.925 37.5ZM49.225 48.65L46.275 50.35C45.675 50.7 45.075 50.875 44.525 50.875C44.1 50.875 43.725 50.775 43.375 50.575C42.575 50.1 42.125 49.175 42.125 47.95V44.55C42.125 43.325 42.575 42.4 43.375 41.925C44.175 41.45 45.2 41.55 46.275 42.15L49.225 43.85C50.275 44.475 50.875 45.325 50.875 46.25C50.875 47.175 50.3 48.025 49.225 48.65Z" fill="#F3802D"/>
</svg>
