<svg width="18" height="18" viewBox="0 0 18 18" fill="none" xmlns="http://www.w3.org/2000/svg">
<path d="M10 2.07089C13.3923 2.55612 16 5.47353 16 9C16 12.866 12.866 16 9 16C5.13401 16 2 12.866 2 9C2 6.96159 2.87128 5.12669 4.26175 3.84738L2.84658 2.43221C1.09461 4.0743 0 6.40932 0 9C0 13.9706 4.02944 18 9 18C13.9706 18 18 13.9706 18 9C18 4.02944 13.9706 0 9 0C8.66199 0 8.32833 0.0186333 8 0.0549288V6.08551H10V2.07089Z" fill="#C3CDD5"/>
<path d="M4.70711 5.70708C4.31658 6.0976 4.31658 6.73077 4.70711 7.12129L7.53553 9.94972C7.92606 10.3402 8.55922 10.3402 8.94975 9.94972C9.34027 9.55919 9.34027 8.92603 8.94975 8.5355L6.12132 5.70708C5.7308 5.31655 5.09763 5.31655 4.70711 5.70708Z" fill="#C3CDD5"/>
</svg>
