<svg width="47" height="48" viewBox="0 0 47 48" fill="none" xmlns="http://www.w3.org/2000/svg">
<path d="M8.57206 22.8152L5.76758 0.185547H10.1068L11.7735 15.5787L13.255 0.185547H17.5942L14.7897 22.8152H8.57206Z" fill="black"/>
<path d="M18.6787 22.8155V0.211914H23.0704V22.8155H18.6787Z" fill="black"/>
<path d="M24.8982 22.8155V0.211914H29.4491V18.9733H34.132V22.8147H24.8975L24.8982 22.8155Z" fill="black"/>
<path d="M36.3266 21.499C35.409 20.482 34.9502 18.8413 34.9502 16.5784V14.3677H39.4215V17.1837C39.4215 18.3067 39.7829 18.8674 40.5066 18.8674C40.9121 18.8674 41.1948 18.7491 41.3532 18.5125C41.5123 18.2752 41.5918 17.8773 41.5918 17.315C41.5918 16.5784 41.503 15.9693 41.3269 15.4861C41.15 15.0037 40.9253 14.6005 40.6519 14.2756C40.3784 13.9514 39.8887 13.4468 39.1836 12.7624L37.2256 10.8152C35.7087 9.34191 34.9502 7.71042 34.9502 5.92069C34.9502 3.99117 35.3959 2.52252 36.2864 1.5132C37.1769 0.504657 38.4784 0 40.1892 0C42.2352 0 43.7081 0.539222 44.6079 1.61843C45.5078 2.69688 45.9573 4.38598 45.9573 6.68421H41.3269L41.3006 5.13183C41.3006 4.8338 41.2165 4.59721 41.0488 4.42131C40.8812 4.24618 40.6472 4.15785 40.3475 4.15785C39.9946 4.15785 39.7296 4.25463 39.5535 4.44743C39.3767 4.641 39.2894 4.9037 39.2894 5.23706C39.2894 5.97369 39.7126 6.73721 40.5592 7.52607L43.2053 10.0524C43.8224 10.6493 44.3338 11.2146 44.74 11.7492C45.1455 12.2846 45.4715 12.916 45.7186 13.6442C45.9658 14.3723 46.0894 15.2365 46.0894 16.2358C46.0894 18.4634 45.6792 20.1525 44.859 21.3016C44.0387 22.4507 42.6847 23.0253 40.7978 23.0253C38.734 23.0253 37.2434 22.5168 36.3266 21.499Z" fill="black"/>
<path d="M0 47.2406V43.6289C0 43.5651 0.051749 43.5137 0.115856 43.5137H4.51452C4.57863 43.5137 4.63037 43.5651 4.63037 43.6289V47.2406C4.63037 47.3044 4.57863 47.3558 4.51452 47.3558H0.115856C0.051749 47.3558 0 47.3044 0 47.2406Z" fill="url(#paint0_linear_2_16317)"/>
<path d="M18.9707 47.3555V24.752H23.3624V47.3555H18.9707Z" fill="black"/>
<path d="M14.7897 24.7256L17.5942 47.3553H13.255L11.5882 31.9621L10.1068 47.3553H5.76758L8.57206 24.7256H14.7897Z" fill="black"/>
<defs>
<linearGradient id="paint0_linear_2_16317" x1="0" y1="45.4347" x2="4.63037" y2="45.4347" gradientUnits="userSpaceOnUse">
<stop stop-color="#037AD6"/>
<stop offset="1" stop-color="#03DDAF"/>
</linearGradient>
</defs>
</svg>
