<svg width="18" height="18" viewBox="0 0 18 18" fill="none" xmlns="http://www.w3.org/2000/svg">
<mask id="mask0_2_15128" style="mask-type:alpha" maskUnits="userSpaceOnUse" x="0" y="0" width="18" height="18">
<rect width="18" height="18" fill="#D9D9D9"/>
</mask>
<g mask="url(#mask0_2_15128)">
<path d="M9 15C9.9375 15 10.7344 14.6719 11.3906 14.0156C12.0469 13.3594 12.375 12.5625 12.375 11.625C12.375 10.6875 12.0469 9.89062 11.3906 9.23438C10.7344 8.57812 9.9375 8.25 9 8.25C8.0625 8.25 7.26562 8.57812 6.60938 9.23438C5.95312 9.89062 5.625 10.6875 5.625 11.625C5.625 12.5625 5.95312 13.3594 6.60938 14.0156C7.26562 14.6719 8.0625 15 9 15ZM9 13.65C8.4375 13.65 7.95938 13.4531 7.56563 13.0594C7.17188 12.6656 6.975 12.1875 6.975 11.625C6.975 11.0625 7.17188 10.5844 7.56563 10.1906C7.95938 9.79688 8.4375 9.6 9 9.6C9.5625 9.6 10.0406 9.79688 10.4344 10.1906C10.8281 10.5844 11.025 11.0625 11.025 11.625C11.025 12.1875 10.8281 12.6656 10.4344 13.0594C10.0406 13.4531 9.5625 13.65 9 13.65ZM9 17.25C7.175 17.25 5.5125 16.7406 4.0125 15.7219C2.5125 14.7031 1.425 13.3375 0.75 11.625C1.425 9.9125 2.5125 8.54688 4.0125 7.52813C5.5125 6.50938 7.175 6 9 6C10.825 6 12.4875 6.50938 13.9875 7.52813C15.4875 8.54688 16.575 9.9125 17.25 11.625C16.575 13.3375 15.4875 14.7031 13.9875 15.7219C12.4875 16.7406 10.825 17.25 9 17.25ZM9 15.75C10.4125 15.75 11.7094 15.3781 12.8906 14.6344C14.0719 13.8906 14.975 12.8875 15.6 11.625C14.975 10.3625 14.0719 9.35938 12.8906 8.61562C11.7094 7.87187 10.4125 7.5 9 7.5C7.5875 7.5 6.29063 7.87187 5.10938 8.61562C3.92812 9.35938 3.025 10.3625 2.4 11.625C3.025 12.8875 3.92812 13.8906 5.10938 14.6344C6.29063 15.3781 7.5875 15.75 9 15.75Z" fill="#1C1B1F"/>
</g>
</svg>
