<svg width="33" height="25" viewBox="0 0 33 25" fill="none" xmlns="http://www.w3.org/2000/svg">
<g clip-path="url(#clip0_50_1289)">
<path fill-rule="evenodd" clip-rule="evenodd" d="M23.2031 0.00152161L24.5908 0.0736605C25.2398 0.106509 25.7432 0.664942 25.7091 1.31226L25.6427 2.59723C26.264 2.81752 26.8441 3.1196 27.3732 3.48738L28.3781 2.58242C28.8608 2.14765 29.6104 2.18566 30.0461 2.66873L30.9762 3.69929C31.4119 4.18171 31.3726 4.93144 30.8904 5.36621L29.8121 6.33944C30.0764 6.8837 30.2749 7.46597 30.3987 8.074L31.8792 8.15064C32.5282 8.18349 33.0316 8.74064 32.9981 9.38989L32.9265 10.776C32.8937 11.4246 32.3348 11.9276 31.6864 11.8941L30.1911 11.8168C30.0052 12.3952 29.748 12.9483 29.4254 13.4632L30.4161 14.5613C30.8511 15.0431 30.8125 15.7935 30.3297 16.2283L29.2985 17.1583C28.8157 17.5931 28.0655 17.5532 27.6304 17.072L26.6939 16.035C26.1441 16.3352 25.5524 16.5671 24.9318 16.7197V13.1018C26.2215 12.5402 27.1528 11.2868 27.2302 9.7873C27.3391 7.6753 25.7142 5.87505 23.6008 5.76619C22.3285 5.70114 21.169 6.26344 20.4239 7.18256H16.159C16.3795 6.53138 16.6876 5.92335 17.0691 5.37007L16.3911 4.61906C15.956 4.13727 15.9947 3.3869 16.4768 2.95213L17.5093 2.02206C17.9908 1.58793 18.7417 1.62658 19.1767 2.10836L19.9102 2.91993C20.5315 2.61463 21.2012 2.39499 21.9025 2.27454L21.9624 1.12032C21.9966 0.471713 22.5541 -0.0313274 23.2031 0.00152161ZM12.132 16.5568H10.462C10.4085 16.5568 10.3673 16.5993 10.3673 16.6527V20.1695C10.3673 20.223 10.4085 20.2655 10.462 20.2655H12.1301C12.1836 20.2655 12.2255 20.223 12.2255 20.1695V16.6527C12.2255 16.5999 12.1855 16.5568 12.132 16.5568ZM1.28326 9.09167H7.29094V7.43247C7.29094 6.93265 7.69957 6.5243 8.19908 6.5243H14.395C14.8945 6.5243 15.3031 6.93265 15.3031 7.43247V9.09167H21.3108C22.0133 9.09167 22.594 9.67265 22.594 10.3741V13.4722C21.1432 14.466 19.6466 15.313 18.1036 16.0041C16.5522 16.6985 14.9525 17.2369 13.2973 17.6086V16.37C13.2973 15.798 12.8365 15.3368 12.2641 15.3368H10.328C9.75563 15.3368 9.29479 15.798 9.29479 16.37V17.5802C7.6841 17.2112 6.12305 16.6824 4.60969 16.0041C3.02479 15.295 1.48887 14.4184 0 13.3891V10.3741C0 9.67136 0.580723 9.09167 1.28326 9.09167ZM22.594 15.3098V23.7178C22.5941 23.8861 22.5607 24.0527 22.4958 24.208C22.4308 24.3632 22.3356 24.504 22.2157 24.6221C21.9817 24.8547 21.6614 25.0002 21.3108 25.0002H1.28326C0.92877 25.0002 0.609082 24.8547 0.378984 24.6221C0.14502 24.3883 0 24.0689 0 23.7178V15.2325C1.2665 16.0441 2.57039 16.7539 3.91102 17.3542C5.64158 18.1303 7.43596 18.7235 9.29607 19.1203V20.4523C9.29607 21.0242 9.75756 21.4854 10.3299 21.4854H12.2661C12.8378 21.4854 13.2993 21.0242 13.2993 20.4523V19.1447C15.1948 18.748 17.0382 18.1451 18.8048 17.3529C20.1029 16.7719 21.3656 16.0885 22.594 15.3098ZM8.89389 7.76096C8.83266 7.76096 8.77852 7.81571 8.77852 7.8769V9.05624H13.8142V7.8769C13.8142 7.81507 13.7595 7.76096 13.6989 7.76096H8.89389Z" fill="#015069"/>
</g>
<defs>
<clipPath id="clip0_50_1289">
<rect width="33" height="25" fill="white"/>
</clipPath>
</defs>
</svg>
