<svg width="32" height="32" viewBox="0 0 32 32" fill="none" xmlns="http://www.w3.org/2000/svg">
<g clip-path="url(#clip0_1_7269)">
<path d="M4.88904 7.65186H21.0975C21.4909 7.65186 21.8097 7.33304 21.8097 6.93958C21.8097 6.54611 21.4909 6.22729 21.0975 6.22729H4.88904C4.49567 6.22729 4.17676 6.54611 4.17676 6.93958C4.17676 7.33304 4.49567 7.65186 4.88904 7.65186Z" fill="#63D6B7"/>
<path d="M4.88904 10.7235H22.8703C23.2637 10.7235 23.5826 10.4047 23.5826 10.0112C23.5826 9.61777 23.2637 9.29895 22.8703 9.29895H4.88904C4.49567 9.29895 4.17676 9.61777 4.17676 10.0112C4.17676 10.4047 4.49567 10.7235 4.88904 10.7235Z" fill="#63D6B7"/>
<path d="M30.8296 11.4965C29.8857 10.5527 28.3699 10.5214 27.3877 11.4021V0.712282C27.3877 0.318818 27.0689 0 26.6754 0H1.14978C0.756413 0 0.4375 0.318818 0.4375 0.712282V31.2877C0.4375 31.6812 0.756413 32 1.14978 32H26.6753C27.0688 32 27.3876 31.6812 27.3876 31.2877V18.4804L30.8179 15.0501C30.8198 15.0482 30.8212 15.0463 30.823 15.0444C30.8252 15.0424 30.8275 15.0406 30.8296 15.0385C31.8061 14.0619 31.8061 12.473 30.8296 11.4965ZM1.86206 30.5754V1.42456H25.963V12.8211L23.2383 15.5459C23.1307 15.4806 23.005 15.4424 22.8699 15.4424H4.8887C4.49533 15.4424 4.17641 15.7612 4.17641 16.1547C4.17641 16.5481 4.49533 16.8669 4.8887 16.8669H21.9172L20.27 18.5141H4.8887C4.49533 18.5141 4.17641 18.8329 4.17641 19.2264C4.17641 19.6199 4.49533 19.9387 4.8887 19.9387H18.8454L17.1983 21.5859H4.8887C4.49533 21.5859 4.17641 21.9047 4.17641 22.2981C4.17641 22.6916 4.49533 23.0104 4.8887 23.0104H15.7738L14.4635 24.3207C14.4442 24.34 14.4266 24.3602 14.41 24.381C14.4057 24.3866 14.4018 24.3923 14.3977 24.3979C14.3854 24.4143 14.3737 24.4309 14.3631 24.448C14.3591 24.4544 14.3553 24.461 14.3515 24.4676C14.3412 24.4853 14.3318 24.5035 14.323 24.5218C14.3212 24.5257 14.3189 24.5291 14.3171 24.533L14.2007 24.7927C14.0835 24.7079 13.9399 24.6575 13.7843 24.6575H4.8887C4.49533 24.6575 4.17641 24.9763 4.17641 25.3698C4.17641 25.7633 4.49533 26.0821 4.8887 26.0821H13.6227L12.7056 28.1277C12.6891 28.1644 12.6766 28.202 12.6667 28.2401C12.4807 28.6359 12.5497 29.123 12.8762 29.4495C13.0779 29.6512 13.3459 29.7622 13.6312 29.7622C13.7931 29.7622 13.9489 29.7253 14.0908 29.6574C14.1271 29.6476 14.1631 29.6359 14.198 29.6202L17.793 28.0087C17.7967 28.007 17.8 28.0049 17.8036 28.0031C17.8224 27.9943 17.8409 27.9847 17.859 27.9741C17.8652 27.9705 17.8715 27.9669 17.8776 27.9631C17.8954 27.952 17.9125 27.9401 17.9294 27.9274C17.9344 27.9236 17.9396 27.9201 17.9445 27.9162C17.9655 27.8995 17.986 27.8819 18.0053 27.8625L25.963 19.9048V30.5754H1.86206ZM16.2671 27.1318L14.4086 27.9649C14.4008 27.9566 14.394 27.9479 14.386 27.9398C14.378 27.9318 14.3694 27.925 14.3612 27.9173L15.1944 26.059L16.2671 27.1318ZM17.5017 26.3517L15.9745 24.8245L27.7797 13.0192L29.307 14.5464L17.5017 26.3517ZM30.1338 13.3585L28.9677 12.1925C29.2738 12.1667 29.5887 12.2702 29.8224 12.5039C30.0561 12.7375 30.1594 13.0525 30.1338 13.3585Z" fill="#63D6B7"/>
<path d="M4.88904 13.7953H20.0844C20.4779 13.7953 20.7967 13.4765 20.7967 13.083C20.7967 12.6895 20.4779 12.3707 20.0844 12.3707H4.88904C4.49567 12.3707 4.17676 12.6895 4.17676 13.083C4.17676 13.4765 4.49567 13.7953 4.88904 13.7953Z" fill="#63D6B7"/>
</g>
<defs>
<clipPath id="clip0_1_7269">
<rect width="32" height="32" fill="white"/>
</clipPath>
</defs>
</svg>
